/* XPM */
static char *finish[] = {
/* columns rows colors chars-per-pixel */
"186 34 2 1",
"  c #AB0000",
". c #00FF00",
/* pixels */
"                   ............       ............  ....................    ............       .................          ............        .......       .......................       ",
"                   ............       ............   ...................    ............       ...............             ...........        .......       .......................       ",
"                   ............       ............    ..................    ............       ..............               ..........        .......       .......................       ",
"                   ............       ............     .................    ............       .............                 .........        .......       .......................       ",
"        .......................       ............       ...............    ............       .............         ....    .........        .......       .......................       ",
"        .......................       ............        ..............    ............       ............         ......    ........        .......       .......................       ",
"        .......................       ............         .............    ............       ............        .......    ........        .......       .......................       ",
"        .......................       ............          ............    ............       ............        .......    ........        .......       .......................       ",
"        .......................       ............           ...........    ............       ............        ...................        .......       .......................       ",
"        .......................       ............            ..........    ............       ............        ...................        .......       .......................       ",
"        .......................       ............             .........    ............       ............         ..................        .......       .......................       ",
"        .......................       ............              ........    ............       ............          .................        .......       .......................       ",
"        .......................       ............               .......    ............       .............          ................        .......       .......................       ",
"        .......................       ............                ......    ............       .............           ...............        .......       .......................       ",
"        .......................       ............                 .....    ............       ..............          ...............        .......       .......................       ",
"                ...............       ............                  ....    ............       ...............          ..............                      .......................       ",
"                ...............       ............    ..             ...    ............       ................          .............                      .......................       ",
"                ...............       ............    ...             ..    ............       .................          ............                      .......................       ",
"                ...............       ............    ....                  ............       ..................          ...........                      .......................       ",
"        .......................       ............    .....                 ............       ...................          ..........        .......       .......................       ",
"        .......................       ............    ......                ............       ...................           .........        .......       .......................       ",
"        .......................       ............    .......               ............       ....................          .........        .......       .......................       ",
"        .......................       ............    ........              ............       .....................          ........        .......       .......................       ",
"        .......................       ............    .........             ............       ......................         ........        .......       ..............................",
"        .......................       ............    ..........            ............       .......................        ........        .......       ..............................",
"        .......................       ............    ...........           ............       .......................        ........        .......       ..............................",
"        .......................       ............    ............          ............       ............    .......        ........        .......       .......................       ",
"        .......................       ............    .............         ............       ............    .......        ........        .......       .......................       ",
"        .......................       ............    ..............        ............       ............     ......        ........        .......       .......................       ",
"        .......................       ............    ...............       ............       ............      ....        .........        .......       .......................       ",
"        .......................       ............    .................     ............       .............                 .........        .......       .......................       ",
"        .......................       ............    ..................    ............       .............                ..........        .......       .......................       ",
"        .......................       ............    ...................   ............       ..............              ...........        .......       .......................       ",
"        .......................       ............    ....................  ............       ................          .............        .......       .......................       "
};
