/* XPM */
static char *grassdirt[] = {
/* columns rows colors chars-per-pixel */
"16 16 100 2",
"   c #292307",
".  c #372807",
"X  c #372E07",
"o  c #3E2B07",
"O  c #3E2E07",
"+  c #322D12",
"@  c #393315",
"#  c #3E3A16",
"$  c #363125",
"%  c #453707",
"&  c #453D07",
"*  c #473E07",
"=  c #49340F",
"-  c #473512",
";  c #433015",
":  c #473515",
">  c #4D3716",
",  c #4C3A1A",
"<  c #523A19",
"1  c #533F1C",
"2  c #543C1C",
"3  c #423C26",
"4  c #1C4300",
"5  c #224E01",
"6  c #205000",
"7  c #225100",
"8  c #255401",
"9  c #275401",
"0  c #2A5600",
"q  c #346101",
"w  c #396202",
"e  c #4D4507",
"r  c #564507",
"t  c #504708",
"y  c #554508",
"u  c #574A08",
"i  c #5B4C0E",
"p  c #4B451B",
"a  c #56411D",
"s  c #62530C",
"d  c #695716",
"f  c #416D03",
"g  c #496D03",
"h  c #516E06",
"j  c #507208",
"k  c #547709",
"l  c #4D4728",
"z  c #534122",
"x  c #574322",
"c  c #564627",
"v  c #584622",
"b  c #5F4725",
"n  c #5E4B26",
"m  c #5E4728",
"M  c #574F29",
"N  c #5E4B28",
"B  c #5D4C2E",
"V  c #614C27",
"C  c #634C27",
"Z  c #634E27",
"A  c #664F27",
"S  c #674F2D",
"D  c #67502D",
"F  c #68502D",
"G  c #68542E",
"H  c #675030",
"J  c #6D5632",
"K  c #6D5835",
"L  c #715733",
"P  c #715933",
"I  c #715A33",
"U  c #755E35",
"Y  c #705B38",
"T  c #735B3B",
"R  c #755E39",
"E  c #76623C",
"W  c #796139",
"Q  c #7B633B",
"!  c #7C633E",
"~  c #7C6241",
"^  c #7F6544",
"/  c #856C3F",
"(  c #836541",
")  c #806544",
"_  c #806841",
"`  c #816B43",
"'  c #806844",
"]  c #866D44",
"[  c #886C43",
"{  c #886C45",
"}  c #886D45",
"|  c #8A6D48",
" . c #8D7147",
".. c #8C7149",
"X. c #8D724A",
"o. c #8D7449",
"O. c #8F7549",
"+. c #8D744D",
"@. c #90764D",
"#. c #957850",
/* pixels */
"8 j 8 j k 8 k 8 g j 0 5 8 f g 5 ",
"5 g 0 6 f 0 8 q w j q 0 5 8 5 5 ",
"5 0 f q 0 4 f k 8 f 0 5 : + 8 5 ",
"5 h h 4 0 5 q q 6 6 4 q t . 6 0 ",
"p q 5 M 5 5 $ 3 * q u 5 _ J @ 6 ",
"i 8 q / e 3 s r y 6 Q l ` ^ % X ",
"L   & X.d y X.] J + a X S D D % ",
"/ O y _ ( ( O.X.z y P P R H > P ",
"n - P W  .[ T V K X.( C < , x , ",
"P C = R R - 2 X.X.P C P n L C R ",
"^ W ^ , c X.P K _ } @.~ L L ( ~ ",
"( ..O.X.G R U , V U } [ > 1 2 S ",
"+...o.#.[ S C n E P L ! P S ! n ",
"D ..] [ K V J N R } ] n T ^ +.P ",
"n E v K P ; B v V | ' D } ^ P P ",
"P J D G o A v ! o P ) K R D ~ R "
};
