/* XPM */
static char *leverup[] = {
/* columns rows colors chars-per-pixel */
"64 64 34 1",
"  c #000000",
". c #181818",
"X c #3A0002",
"o c #212121",
"O c #242424",
"+ c #2A2A2A",
"@ c #313131",
"# c #383838",
"$ c #730003",
"% c #5D5B04",
"& c #717305",
"* c #424242",
"= c #4A4A4A",
"- c #515151",
"; c #5D5D5D",
": c #696969",
"> c #797979",
", c #910004",
"< c #950004",
"1 c #9E0005",
"2 c #AC0005",
"3 c #C70006",
"4 c #F80007",
"5 c #F83B43",
"6 c #8A8D06",
"7 c #C1BB08",
"8 c #FBF50A",
"9 c #868686",
"0 c #989798",
"q c #A5A5A5",
"w c #B3B3B3",
"e c #C6C6C6",
"r c #D4D4D4",
"t c #FBFBFB",
/* pixels */
"++++++++++++++++++++++++++++++++++++++++++++++++++++++++++++++++",
"+>>>>>>9>9>9>9>9>99999999999>9>9>>>>>>:>:>::::::::;;;;;;;;;;;;;+",
"+>>>9>9>9>9>9>99999999999>9>9>9>>>>>>:>:>::::::::;:;09;09;;;;;;+",
"+9>9>9>9>999999999999999>9>9>>>>>>:>:>:>::::::::;:;->0->0-;;;;-+",
"+>9>9>9>9999999999999>9>9>9>>>>>>:>:>::::::::::;:;:->0->0-;;;-;+",
"+9>9>******------;;;;;;;;>>>>>>>:>:>::::::::::;:;:+#****==-;-;-+",
"+>9>:*:000000qqqqqqqwwww;>>>>:>:>:>::::::::;:;:;:;+@#####**-;-;+",
"+999:#;>>>>999999999900w;>>>:>:>:>::::::::;:;:;:;;;+-;+-;*-;-;-+",
"+999:#;>+>+>+>+9+9+9+90w->>:>:>:>::::::::;:;:;:;;;;->0->0-;-;--+",
"+999:+;>#>#>#>#>#9#9#99q->:>000qqqqwwrt:;:;:;;;;;;;->0->9--;---+",
"+999:+;>#>#>#>#>#>#9#9*0-:>*0#00q4qqw;r;:;:;;;;;;;;->9-:9*;----+",
"+999:+;>*>*>*>*>*>*>*>90*>:*0000354qqqw:;:;;;;;;;;;-:9*:9*-----+",
"+999:+;>>>>>>>>>>>>>>>>0*::#90035554qqq;:;;;;;;;;;;*:9*;9*-----+",
"+999;o;;;;;;;;;;;;;;;;;:*::#993555554qq;;;;;;;;;;;;*:9*;>*-----+",
"+99>;oooo+++++++#####****::#992115222qq;;;;;;;;;;;;*:9*;>#-----+",
"+9>9;;;;;;;;;;;;;;;;;;;;:::#>999152000q;;;;;;;;;;;;*;9*;>#-----+",
"+>9>>>>>>>>>>:>:>:>::::::::+>>99,520000;;;;;;;;;;;;*;9#;>#-----+",
"+9>>>>>>>>:>:>:>:>:::::::::+> >9,,290#0;;;;;;;;;;;-#;>#;>#-----+",
"+>>>>>>>>:>:>:>:>::::::::::+>>>>9999900;;;;;;;;;;-;#;>#;>#-----+",
"+>>>>>>>:>:>:>:::::::-9::::++++++###***;;;;;->;;-;o+@######--;-+",
"+>>>>:>:>:>:>:::::::-+-::::;:;:;:;;;;;;;;;;*+-;-;-oO+++++@#----+",
"+>>>:>:>:>***---------:*oooooooooooooooooooo*;-;-;-+**+**#---;-+",
"+>>:>:>:>:#>>>999>9-::::@@@@@@@@o**@@@@@@@@o;-;-;--#;>#;>#-----+",
"+>:>:>:>::#>9999>9>-:::9********o*0*******@o-;-;-;-#;>#;>#-;-;-+",
"+>>:>:>:::#96--6&*>-:::9-*******o+-*******@o;-;-;--#;>#;>#----;+",
"+>:>:>::::o9--6&**>-;:;9-**7#77*77*78-888*@o-;-;---#;>#;>#-;-;-+",
"+:>:>:::::+9-6&**&>-:;:9-#o:e::::::::::9e*@o;-;-**-#;:#;>#----;+",
"+:::::::::o96&**&%>-;:;9-#o:eoooooooooo9e*@o-;##**##;;#;>#-;-;-+",
"+:::::::::#>&**&%#>-:;:9-#o>e#########o9e*@o;#-:##::;-#;>#----;+",
"+:::::::::#9>>>>>>>*;:;9-#o>e********#o9e*@o*#**@@****#;:#-;-;-+",
"+:::::::::#>>>>>>>>*:;;9-#o9e********#o9e*@o**#++++###-;;#--;-;+",
"+:::::::::#>>>>>+*>*;;;9-#-9e::::;;;;--9t0@o*#-:++::::;--#-;-;-+",
"+:::::::::#>>>>;.+:*;;;9-+o--oooooooooo--o@o*+##OO######*#--;-;+",
"+:::::::;:#>>>>;;:>*;;;9-#+oo#########+oo*@o**++oo++++++#;-;-;-+",
"+::::::::;#>>>>>:>:*;;;9;####********####*@o-***oo******--;-;-;+",
"+:::;:;:;:#>>>>:>::*;;;9;*****************@o-----------;-;-;-;-+",
"+::::::;:;o>>>:>:::*;;;9;*****************@o--------------;-;;;+",
"+:;:;:;:;:+>>:>::::*;;;9;*****************@o---------;-;-;-;-;;+",
"+::::;:;:;o>>>:::::#;;;9;*****************@o------------;-;-;;;+",
"+:;:;:;:;:#>>:>::::#;;;9;*****************@o---------;-;-;-;-;;+",
"+::;:;:;:;#>:>:::::#;;;9;;;;;;;;;;;;;;---*@o------------;-;-;;;+",
"+:;:;:;:;:##########;;;9999999>>>>>>>::::;*#---------;-;-;-;-;;+",
"+;:;:;:;:;;;;;;;;;;;-->;;;;-;-;-;-----------*;----------;-;;;;;+",
"+:;:;:;:;:;;;;;;;;;;*+-;-;-;-;-;-----------*+*-----;-;-;-;-;-;;+",
"+;:;:;:;;;;;;;;;;;;;**-;;-;-00000qqwwrt----**---------;-;-;;;;;+",
"+:;:;:;:;;;;;;;;;;;;-;-;-;-*0#00444qw;r------------;-;-;-;-;;;;+",
"+;:;;;;;;;;;;;;;;;;;;;;-;-;*900>$,4qqww---------------;-;-;;;;:+",
"+:;:;:;;;;;;;;;;;;-;-;-;-;-*990>$,40qqw----------;-;-;-;-;-;;;;+",
"+;;;;;;;;;;;;;;;;;;;;-;-;-;#9922$<444qq-------------;-;-;;;;;;:+",
"+:;;;;;;;;;;;;;;-;-;-;-;-;-#>:X<<<<<Xqq----------;-;-;-;-;-;;:;+",
"+;;;;;;;;;;;;;;;;;;-;-;-;-;+>>;X<<,X00q-------------;-;-;;;;;;:+",
"+;;;;;;;;;;;;;-;-;-;-;-;-;-+>>>;X<X0000--------;-;-;-;-;-;-;;:;+",
"+;;;;;;;;;;;;;;;;-;-;-;-;--+> >>;X990#0-----------;-;-;-;;;;;;:+",
"+;;;;;;;;;;;-;-;-;-;-;-;-;-+>>>>>999900--------;-;-;-;-;-;;;;:;+",
"+;;;;;;;;;;;;;;-;-;-;-;-;--+++++++###**-----------;-;-;-;;;;:;:+",
"+;;;;;;;;;-;-;-;-;-;-;-;-;-;-------------------;-;-;-;-;-;;;;:;+",
"+;;;;;;;;;;;;-;-;-;-;-;---------------------------;-;-;;;;;;:;:+",
"+;;;;;;;-;-;-;-;-;-;-;-;-;-------------------;-;-;-;-;-;-;;:;::+",
"+;;;;;;;;;;;;-;-;-;-;---------------------------;-;-;-;;;;;;:;:+",
"+;;;;;-;-;-;-;-;-;-;-;-;---------------------;-;-;-;-;-;-;;:;::+",
"+;;;;;;;;;;-;-;-;-;-----------------------------;-;-;-;;;;;;:;:+",
"+;;;-;-;-;-;-;-;-;-;-;-;-------------------;-;-;-;-;-;-;;;;:;::+",
"+;;;;;;;;-;-;-;-;-----------------------------;-;-;-;;;;;;:;:::+",
"++++++++++++++++++++++++++++++++++++++++++++++++++++++++++++++++"
};
