/* XPM */
static char *leverdown[] = {
/* columns rows colors chars-per-pixel */
"64 64 37 1",
"  c #000000",
". c #181818",
"X c #3A0002",
"o c #212121",
"O c #242424",
"+ c #2A2A2A",
"@ c #313131",
"# c #383838",
"$ c #500002",
"% c #670003",
"& c #5D5B04",
"* c #717305",
"= c #424242",
"- c #4A4A4A",
"; c #515151",
": c #5D5D5D",
"> c #696969",
", c #797979",
"< c #910004",
"1 c #950004",
"2 c #AC0005",
"3 c #893A04",
"4 c #C70006",
"5 c #F80007",
"6 c #A34105",
"7 c #DB5607",
"8 c #F9731A",
"9 c #F83B43",
"0 c #8A8D06",
"q c #F9974A",
"w c #868686",
"e c #989798",
"r c #A5A5A5",
"t c #B3B3B3",
"y c #C6C6C6",
"u c #D4D4D4",
"i c #FBFBFB",
/* pixels */
"++++++++++++++++++++++++++++++++++++++++++++++++++++++++++++++++",
"+,,,,,,w,w,w,w,w,wwwwwwwwwww,w,w,,,,,,>,>,>>>>>>>>:::::::::::::+",
"+,,,w,w,w,w,w,wwwwwwwwwww,w,w,w,,,,,,>,>,>>>>>>>>:>:ew:ew::::::+",
"+w,w,w,w,wwwwwwwwwwwwwww,w,w,,,,,,>,>,>,>>>>>>>>:>:;,e;,e;::::;+",
"+,w,w,w,wwwwwwwwwwwww,w,w,w,,,,,,>,>,>>>>>>>>>>:>:>;,e;,e;:::;:+",
"+w,w,======;;;;;;::::::::,,,,,,,>,>,>>>>>>>>>>:>:>+#====--;:;:;+",
"+,w,>=>eeeeeerrrrrrrtttt:,,,,>,>,>,>>>>>>>>:>:>:>:+@#####==;:;:+",
"+www>#:,,,,wwwwwwwwwweet:,,,>,>,>,>>>>>>>>:>:>:>:::+;:+;:=;:;:;+",
"+www>#:,+,+,+,+w+w+w+wet;,,>,>,>,>>>>>>>>:>:>:>::::;,e;,e;:;:;;+",
"+www>+:,#,#,#,#,#w#w#wwr;,>,eeerrrrttui>:>:>:::::::;,e;,w;;:;;;+",
"+www>+:,#,#,#,#,#,#w#w=e;>,=e#eer5rrt:u:>:>::::::::;,w;>w=:;;;;+",
"+www>+:,=,=,=,=,=,=,=,we=,>=eeee415rrrt>:>:::::::::;>w=>w=;;;;;+",
"+www>+:,,,,,,,,,,,,,,,,e=>>#wee41115rrr:>::::::::::=>w=:w=;;;;;+",
"+www:o:::::::::::::::::>=>>#ww4111115rr::::::::::::=>w=:,=;;;;;+",
"+ww,:oooo+++++++#####====>>#wwXX$1XX$rr::::::::::::=>w=:,#;;;;;+",
"+w,w::::::::::::::::::::>>>#,wwwX1$eeer::::::::::::=:w=:,#;;;;;+",
"+,w,,,,,,,,,,>,>,>,>>>>>>>>+,,wwX1%eeee::::::::::::=:w#:,#;;;;;+",
"+w,,,,,,,,>,>,>,>,>>>>>>>>>+, ,wXX%we#e:::::::::::;#:,#:,#;;;;;+",
"+,,,,,,,,>,>,>,>,>>>>>>>>>>+,,,,wwwwwee::::::::::;:#:,#:,#;;;;;+",
"+,,,,,,,>,>,>,>>>>>>>;w>>>>++++++###===:::::;,::;:o+@######;;:;+",
"+,,,,>,>,>,>,>>>>>>>;+;>>>>:>:>:>::::::::::=+;:;:;oO+++++@#;;;;+",
"+,,,>,>,>,===;;;;;;;;;>=oooooooooooooooooooo=:;:;:;+==+==#;;;:;+",
"+,,>,>,>,>#,,,www,w;>>>>@@@@@@@@@@@@@@@@@@@o:;:;:;;#:,#:,#;;;;;+",
"+,>,>,>,>>#,wwww,w,;>>>w==================@o;:;:;:;#:,#:,#;:;:;+",
"+,,>,>,>>>#w0;;0*=,;>>>w;=================@o:;:;:;;#:,#:,#;;;;:+",
"+,>,>,>>>>ow;;0*==,;:>:w;=================@o;:;:;;;#:,#:,#;:;:;+",
"+>,>,>>>>>+w;0*==*,;>:>w;=================@o:;:;==;#:>#:,#;;;;:+",
"+>>>>>>>>>ow0*==*&,;:>:w;=================@o;:##==##::#:,#;:;:;+",
"+>>>>>>>>>#,*==*&#,;>:>w;=================@o:#;>##>>:;#:,#;;;;:+",
"+>>>>>>>>>#w,,,,,,,=:>:w;=================@o=#==@@====#:>#;:;:;+",
"+>>>>>>>>>#,,,,,,,,=>::w;==ti==========ti=@o==#++++###;::#;;:;:+",
"+>>>>>>>>>#,,,,,+=,=:::w;#>wy>>>>::::;;wie@o=#;>++>>>>:;;#;:;:;+",
"+>>>>>>>>>#,,,,:.+>=:::w;+owyoooooooooowyo@o=+##OO######=#;;:;:+",
"+>>>>>>>:>#,,,,::>,=:::w;#o,y========#owy@@o==++oo++++++#:;:;:;+",
"+>>>>>>>>:#,,,,,>,>=:::w:#o,y========#owy=@o;===oo======;;:;:;:+",
"+>>>:>:>:>#,,,,>,>>=:::w:#o>y========#owy=@o;;;;;;;;;;;:;:;:;:;+",
"+>>>>>>:>:o,,,>,>>>=:::w:#o>yiiiyyyttrewy=@o;;;;;;;;;;;;;;:;:::+",
"+>:>:>:>:>+,,>,>>>>=:::w:#o3o33o33o67@78q=@o;;;;;;;;;:;:;:;:;::+",
"+>>>>:>:>:o,,,>>>>>#:::w:#ooooooo+;ooooo==@o;;;;;;;;;;;;:;:;:::+",
"+>:>:>:>:>#,,>,>>>>#:::w:#######o=e####===@o;;;;;;;;;:;:;:;:;::+",
"+>>:>:>:>:#,>,>>>>>#:::w:::;;;=#o==:::;;;=@O;;;;;;;;;;;;:;:;:::+",
"+>:>:>:>:>##########:::wwwwwww,,,,,,,>>>>:=#;;;;;;;;;:;:;:;:;::+",
"+:>:>:>:>:::::::::::;;,::::;:;:;:;;;;;;;;;;;=:;;;;;;;;;;:;:::::+",
"+>:>:>:>:>::::::::::=+;:;:;:;:;:;;;;;;;;;;;=+=;;;;;:;:;:;:;:;::+",
"+:>:>:>:::::::::::::==;::;:;eeeeerrttui;;;;==;;;;;;;;;:;:;:::::+",
"+>:>:>:>::::::::::::;:;:;:;=e#ee255rt:u;;;;;;;;;;;;:;:;:;:;::::+",
"+:>::::::::::::::::::::;:;:=wee,295rrtt;;;;;;;;;;;;;;;:;:;::::>+",
"+>:>:>::::::::::::;:;:;:;:;=wwe,295errt;;;;;;;;;;:;:;:;:;:;::::+",
"+::::::::::::::::::::;:;:;:#ww2229444rr;;;;;;;;;;;;;:;:;::::::>+",
"+>::::::::::::::;:;:;:;:;:;#,><999992rr;;;;;;;;;;:;:;:;:;:;::>:+",
"+::::::::::::::::::;:;:;:;:+,,:<9992eer;;;;;;;;;;;;;:;:;::::::>+",
"+:::::::::::::;:;:;:;:;:;:;+,,,:<91eeee;;;;;;;;:;:;:;:;:;:;::>:+",
"+::::::::::::::::;:;:;:;:;;+, ,,:<wwe#e;;;;;;;;;;;:;:;:;::::::>+",
"+:::::::::::;:;:;:;:;:;:;:;+,,,,,wwwwee;;;;;;;;:;:;:;:;:;::::>:+",
"+::::::::::::::;:;:;:;:;:;;+++++++###==;;;;;;;;;;;:;:;:;::::>:>+",
"+:::::::::;:;:;:;:;:;:;:;:;:;;;;;;;;;;;;;;;;;;;:;:;:;:;:;::::>:+",
"+::::::::::::;:;:;:;:;:;;;;;;;;;;;;;;;;;;;;;;;;;;;:;:;::::::>:>+",
"+:::::::;:;:;:;:;:;:;:;:;:;;;;;;;;;;;;;;;;;;;:;:;:;:;:;:;::>:>>+",
"+::::::::::::;:;:;:;:;;;;;;;;;;;;;;;;;;;;;;;;;;;:;:;:;::::::>:>+",
"+:::::;:;:;:;:;:;:;:;:;:;;;;;;;;;;;;;;;;;;;;;:;:;:;:;:;:;::>:>>+",
"+::::::::::;:;:;:;:;;;;;;;;;;;;;;;;;;;;;;;;;;;;;:;:;:;::::::>:>+",
"+:::;:;:;:;:;:;:;:;:;:;:;;;;;;;;;;;;;;;;;;;:;:;:;:;:;:;::::>:>>+",
"+::::::::;:;:;:;:;;;;;;;;;;;;;;;;;;;;;;;;;;;;;:;:;:;::::::>:>>>+",
"++++++++++++++++++++++++++++++++++++++++++++++++++++++++++++++++"
};
