/* XPM */
static char *murpierregris[] = {
/* columns rows colors chars-per-pixel */
"64 64 16 1",
"  c #181818",
". c #212121",
"X c #2A2A2A",
"o c #383838",
"O c #424242",
"+ c #515151",
"@ c #5D5D5D",
"# c #696969",
"$ c #797979",
"% c #868686",
"& c #989798",
"* c #A5A5A5",
"= c #B3B3B3",
"- c #C6C6C6",
"; c #D4D4D4",
": c #E7E7E7",
/* pixels */
"................................................................",
"OOOOOOOOOOo;;;;;;;;;;;;;;;; X$&=------==&$O ooooooooooOOOOOOOOOO",
"OOOOOOOOOOo;---=------=---$ X$=*$&$$$$$$&OX X@$$$$$$#@+ooooooooo",
"$$$$$$$$ Oo;-=*-*-=*-==*-$+ X&;&$&$&$&$&$OX X$;;;;;;=*&$$$$$$$$$",
"-;--*&$$ Oo;-&&&&$&&&&%&&#O X$=$$$&&&&$$@OX X$;;===-;;;;;-------",
"&&&&&&#@ Oo:=%&&&&&&%&$&&@O Xo&$&&$$&$&@OOX X$;*&$&$&&&$$&$&$&$%",
"*%&%&$#@ oo:-&$&%&$%%%$%&$O Xo#$$&$&&$&@XXX X$;*$&$%$$$&$$%%&%$&",
"**#*$%+O Xo:-$%$&&&$#$%&$+O Xoo$&&&$$$&@XXX.X$;*&$%#&%#$&$&&$#&%",
"%&&%%@oo .o==&%&$&$%$%$$&@O  oOo#XXXXXXXXX .X#;;$&$#%#%$&$%#&&#$",
"$$$$@Ooo .o&:&&&$$%$$$$&$O#. XoXXXXXXXXX   ooo=-$$$%%%%$$&$&&$&$",
"@@@@OoXX .o$;$&$%#$$&$&$&@O. XoX..     ....oOo=*$&$&$$$@@+++++++",
"OOooo    .o@;&$%###&%$$#$@+X Xoooo@#$&&&&%@XOo*$@@+++OOOOooooooo",
"     ....XOo;-$$$%%$$&#$&$OX Xo@&&;;:;--%@O Oo$@++OoooXXXXX.....",
".........XOo&-$&$#$&$$%$$@OX .X&=;-*$&$&$@X XXXXXXXXXXX..       ",
"XXXXXXXXXXOo$-&$&%$#$#$&$OOX .o&;=&$$$$$$OX X..........XXXXXXXXX",
"OoXXXXXXXXOo@=$&%$&%&$&$&O@o .o&:&$$&$&$&OX XoOOOO ooooooooooooo",
"%%%%%%%%%. Oo==%$$%%#$$$$@OO  o&:$$&&$&$$OX X@&;;OoO#%%%%%%%%%%%",
"------**@X Oo$=$&$#$$$&$@$@o  o&-&&$$&$&$OX X&;=& o#=;;;;;;;;;;;",
"&%$&$&&@@X Oo@%&$&&$&@$@O@Oo  o&-&$@@@@OOOX X;=&$ o%;-**********",
"&$&$&$$@@X oOo%%@@@@OO@O@Oo.  .&$@$@XXXXXXX +;*$$ o%;*&%&%&$%$%%",
"&%$&$&&@OX oOo+OOOOoooX.      .$@XXX        +;&&$ o%;&$%$%$%##$$",
"&$&$&$$@OX oOo....            .XOX    ......$;&&$ o$=$&%&%&$%$%%",
"$&##$$&@OX XOOoX        ooooooo$$%&&%$$#O.X+=;&$# o$=&$%$%$%##$$",
"$$##$&$+oX X$;;;;=*&$+Xo+#&&==-;;;;;;;-%+ X#;=&&@ o#=&%$&$&$##$%",
"$$&&$$$+oX X;=&%%%&%%XOo#-::;=*========@O X$;*%$@ o@=$&%$%$$&$&$",
"%&$$&$@OXX X;&$%&&%%& Oo%:=$&$&%$&%&%$$+o X$:&$&O oo$@+OOO++@#$$",
"+++++OoXXX X;&&&$&$&+ oo%:&&&$#&&$$$&$&Oo X$:&&%O O XXoooooooOOO",
"OooXXX    .X;$&$&*$#+ oo%:$&$%&$$#$&%$$Oo X$:$&$O OX         XXo",
"      ...ooo;&%$&$&#+ Xo%:%$&$$#$#$$$&$Oo X$:&&$O OXXXXXXX...   ",
"o++@$%$$$$o ;&#%$&$#+X o%:&$$$#$#$&#$$&Oo X$:%&&O OoooOOOOOOOXXX",
"+$*;;;---&@ ;&&$#$&$+X o$;=%$&$&##$#$&$OX X$;$$&O o&;;*$+OoooooO",
"+*--=*&&%&o :%%&#$&%@o o#-=&$$#$##&$&$#OX.X$;&%$O o;$$*;;;;;;%XO",
"+;*&&$&%&$@ :%&%&&$&@o XO=:&&%$&$&##$&@OX.X$;$&$O o;$$&&$$&$$#XO",
"+;*%$&$&$&@ :%$%&$&$+O .O&:&&&$$#$##&$@o..o$-&&$O o;&&$$&&$&$+Xo",
"+;&%&$&&#&O ;&&&%$%&+O .O$:=&$&$$%$&$&+o .o$-&$&O o-&$&&$$&$&+Xo",
"+;*&$$&%&$O ;=#%#&&%+O  o@-=&$#%$$%$%$+X .o$-$&OO o=&&&$&$$&&OXo",
"+;*$&&$&$&O =;$%&$%$+O  oO*;&$&$&$&$$+OX Xo#&#OXXXo&&$&&$&$$&OXX",
"+;*&&$&%&$O *;#&$$$&@O  XO$=&$#++OooXXXX XoOXXXXoo @OoOOOOOOOOXX",
"+;*$&&$&#&O %;%#&&$$@O  XOo$$+OoX        XoOooOOOOO            X",
"+;*$$%&$&$O #;&%&$$&+O  .ooX...  ........XoOOoooooooooXXXXXXXXXX",
"+;*&&$%&%&O O:$&$$&$+O  .oooXXXXXooooooooooOO#################XO",
"+;*$$&$&$@O o:&$$#$&@O. .X+#############$$%%&**======*=======#XO",
"+-*&&%&$&O .o:&$&$$$+O.  X#===============-;;:::::::::::;;--%+.o",
"+-*%&$&&$O .o:$&#%$&+OX   #=-::::::;::;::::::;;-=*===&==*==*#O.o",
"+=*&$&$$$O Xo;&&$&$$+OX   #=-*=====&==&===**&%%$$&$&$$$&$&$&@O.X",
"o=$$&$@@@O Xo-$$&$&$@OX   +=;*$$$$$$&$&&%$%&&&%#%$&&%$&$&&&$@O.X",
"o*&&&$OOO .Xo*&$$&$$@OX   o=;=$%$&$&$%&$$%&&$%$%$$#$%%$&$&$&@O.X",
"o###OOOOO .Xo%%&$$$@+OX   .*;-&&$$$$#$$&$%$&%#$$&$$&$##$#%$%@O X",
"oX   OOOO Xoo#++++++OOX   .&;-$$&$&$$&$##%%$&$&%$&$$#$$$&$##@O X",
"OOOoX  . .XoXXXXXXXXXXX   .$-**$$&$&#$$%#%$%#&$$#$$$$&$#$%##@O X",
"ooooooo...XoXX            .$%@@@@@@@&$&&$$#$$$#$$&$&$$&$$$$%@O X",
"o#&&&&%$+ooOXX............XOoXX.....O@@#$###################+O X",
"o&=;;;;;=&&$@+OoXXXXXXXXXXoOooXXXXXX.oOOOOOOOOOOOOOOOOOOOOOOO .X",
"o&;&&$=-;;;=&&&&&&&&$$$##@++OOoooooXX.............           .Xo",
"o&;&&&**$&=;;;;;;;;;;;;--==&&&&&$oOoXXXXXXXXX...............XXoo",
"o&;&$&##&%$#&$&$&$&&$&$&&*=;;;-=#XoOoooXXXXXXXXXXXXXXXXXXXXXoooO",
"o&-&&&%&$%$%&$$&##$&#$$$&$&$&&&#+ XOo&;;&#oooOOOooooooooooooOOOO",
"o&=&$&##%&$&&%$#&#$#%$&$&$&$&&&+O Xoo;&&;;;;*OOo*;;;;;;;-=*%#ooO",
"o&$++++++++++++++++++++++++++++OOX Xo;*******+O#;&&&$&$&%&$&;% O",
"o$+XXXXXXXXXXXXXXXXXXXXXXXXXXXXXXX .o*&**%+%$+o*&$&$&&&$&$&$&O O",
"oX                                 .oXoXO+++++o;&%%&&%%&%&&$$O O",
"OoXXX...............................XOOXX     XOOOOOOOOOOOOOOO O",
"OOOOooooooooXXXXXXXXXXXXXXXXXXXXXXXXXOOOOXXXXXXOO              O",
"XXXXXXXXXXXXXXXXXXXXXXXXXXXXXXXXXXXXXXXXXXXXXXXXXXXXXXXXXXXXXXXX"
};
