/* XPM */
static char *murpierregrisflag[] = {
/* columns rows colors chars-per-pixel */
"64 64 39 1",
"  c #000000",
". c #181818",
"X c #212121",
"o c #2A2A2A",
"O c #383838",
"+ c #5C0003",
"@ c #670003",
"# c #730003",
"$ c #424242",
"% c #515151",
"& c #5D5D5D",
"* c #696969",
"= c #797979",
"- c #840004",
"; c #910004",
": c #950004",
"> c #9E0005",
", c #AC0005",
"< c #BA0005",
"1 c #893A04",
"2 c #C70006",
"3 c #D60006",
"4 c #E40007",
"5 c #F80007",
"6 c #F8001A",
"7 c #BF4B06",
"8 c #F9731A",
"9 c #F8434A",
"0 c #FBF50A",
"q c #F9974A",
"w c #868686",
"e c #989798",
"r c #A5A5A5",
"t c #B3B3B3",
"y c #C6C6C6",
"u c #D4D4D4",
"i c #FBFDCF",
"p c #E7E7E7",
"a c #FBFBFB",
/* pixels */
"XXXXXXXXXXXXXXXXXXXXXXXXXXXXXXXXXXXXXXXXXXXXXXXXXXXXXXXXXXXXXXXX",
"$$$$$$$$$$Ouuuuuuuuuuuuuuuu.o=etyyyyyytte=$.OOOOOOOOOO$$$$$$$$$$",
"$$$$$$$$$$Ouyyytyyyyyytyyy=.o=tr=e======e$o.o&======*&%OOOOOOOOO",
"=======0.$Ouytryrytryttry=%.oeue=e=e=e=e=$o.o=uuuuuutre==0======",
"yuyyreqi.$Ouyeeee=eeeewee*$.o=t===eeee==&$o.o=uutttyuuuuuiqyyyyy",
"eeeeq0ii8000  0000000000000000000000000000000000000  000ii00qe=w",
"rwew77701111e   1111111111111111111111111111111111  e 111q777$=e",
"rr*r=%$8.$$..55>  XXXXXXXXXXXXXXXXXXXXXXXXXXXXXX  #>  $$$7$$$$ew",
"weeww&OO.XO%%5533>-@@ ooOOO$$$$$$$$$$$$$OOOooo+>>>,>$$%**%$%***=",
"====&$OO.XOep55332<,>::>,25aOa52,:r w:#-><24665532,>$%*==e=*e=e=",
"&&&&$Ooo.XO=u55332<,>::>,25aOa52,:r w:#-><24665532,>$%*&&%%%%%%%",
"$$OOo....XO&u55332<,>::>,25aOa52,:r w:#-><24665532,>$$$$$OOOOOOO",
".....XXXXo$Ou55332<,>::>,25aOa52,:r w:#-><24665532,>oooooooXXXXX",
"XXXXXXXXXo$Oe55332<,>::>,25aOa52,:r w:#-><24665532,>oooXX.......",
"oooooooooo$O=55332<,>::>,25aOa52,:r w:#-><24665532,>XXXooooooooo",
"$Ooooooooo$O&55332<,>::>,25aOa52,:r w:#-><24665532,>..OOOOOOOOOO",
"wwwwwwwwwX.$O55332<,>::>,25aOa52,:r w:#-><24665532,>$%*wwwwwwwww",
"yyyyyyrr&o.$O55332<,>::>,29aOa52,:r w:#-><24665532,>$%*uuuuuuuuu",
"ew=e=ee&&o.$O55332<,>::>,9aaOappuyr ww%-><24665532,>$%*rrrrrrrrr",
"e=e=e==&&o.O$55332<,>::>&ua$Oappuyre  *&O<24665532,>$%*wewe=w=ww",
"ew=e=ee&$o.O$55332<,>::&tXOawOooX.. ww  w&24665532,>$%*w=w=w**==",
"e=e=e==&$o.O$55332<,>:&tX&a$Oappuyre  *& e&4665532,>$%*wewe=w=ww",
"=e**==e&$o.o$55332<,>:r &uOaa$oo=yrew& && r4665532,>$%*w=w=w**==",
"==**=e=%Oo.o=55332<,>e &tXaa=Ooo$yreww* w& y665532,>$%*=e=e=**=w",
"==ee===%Oo.ou55332<,%e tXua=OOo$=yr$ X*& e yw65532,>$%*w=w==e=e=",
"we==e=&$oo.ou55332<,= r tu=$OO$=uy$   X&w r p65542,>ooo$$$%%&*==",
"%%%%%$Oooo.ouaaayrw== r teO$OO$=u$.    Xw & pppuye=&oooOOOOOO$$$",
"$OOooo....oou**ooo   e ttu=$OOo$$..     X& yO%$$X   .........ooO",
"......OOOOOOuaaayrw==e ttua=OOooX.. X    e ypppuye=&..ooooXXX...",
"O%%&=w====O.u55332<,=e ttuaa=OooX..XwX   e yp6553<,>OO$$$$$$$ooo",
"%=ruuuyyye&.u55332<,=e tX=aaa$ooX.X%wwXXXe yp6553<,>$%*=%$OOOOO$",
"%ryytreeweO.p55332<,=e tXX=a=OooX.. %w*&we yp6553<,>$%*uuuuuuwo$",
"%uree=ewe=&.paaayrw==e tXXO$OOoo$..  %*&we ypppuye=&$%*e==e==*o$",
"%urw=e=e=e&.p**ooo   e t$XO$OOo=u$.   *&w& yO%$$X   $%*=ee=e=%oO",
"%uewe=ee*e$.uaaayr=== & t$O$OO=puy$    &w r pppuye=&$%*==e==e%oO",
"%ure==ewe=$.u55332<,= r tu=$O=ppuy$    &w r p65532,>$%*=e=e=e$oO",
"%ur=ee=e=e$.t55332<,>e tXuaaaappu$.   *& e y=65532,>$%*==e==e$oo",
"%uree=ewe=$.r55332<,>e ttXaaaappu..  w* w& p665532,>oo$$$$$$$ooo",
"%ur=ee=e*e$.w55332<,>:r tuOaaappu$. wO && r&665532,>...........o",
"%ur==we=e=$.*55332<,>:9tXua$Oappuyre  *O e=4665532,>..oooooooooo",
"%uree=weweo.$55332<,>::9tXOaaOooX.. ww  w=24665532,>oO$*******o$",
"%ur==e=e=&o.O55332<,>::>9ue$Oappuyr&  *&&<24665532,>$%*tttttt*o$",
"%yreewe=e$.XO55332<,>::>,2waOappuyr ww%-><24665532,>$%*puuyyw%XO",
"%yrwe=ee=$.XO55332<,>::>,25aOa52,:r w:#-><24665532,>$%*trttr*$XO",
"%tre=e===$.XO55332<,>::>,25aOa52,:r w:#-><24665532,>$%*e=e=e&$Xo",
"Ot==e=&&&o.oO55332<,>::>,25aOa52,:r w:#-><24665532,>$%*=eee=&$Xo",
"Oreee=$$$.XoO55332<,>::>,25aOa52,:r w:#-><24665532,>$%*e=e=e&$Xo",
"O***$$$$o.XoO55332<,>::>,25aOa52,:r w:#-><24665532,>$%*=*w=w&$.o",
"Oo...oooo.oOO55332<,>::>,25aOa52,:r w:#-><24665532,>$%*=e=**&$.o",
"$$$Oo..X.XoOo55332<,>::>,25aOa52,:r w:#-><24665532,>$%**=w**&$.o",
"OOOOOOOXXXoOo55332<,>::>,25aOa52,:r w:#-><24665532,>$%*====w&o.o",
"O*eeeew=%OO$o55332<,>::>,25aOa52,:r w:#-><24665532,>$%******%o.o",
"Oetuuuuutee=&55332<,>::>,25aOa52,:r w:#-><24665532,>ooooooooo.Xo",
"Oeuee=tyuuute55332<,>::>,25aOa52,:r w:#-><24665532,>.........XoO",
"Oeueeerr=etuu55332<,>::>,25aOa52,:r w:#-><24665532,>..XXXXXXooOO",
"Oeue=e**ew=*e55332<,>::>,25aOa52,:r w:#-><24665532,>..ooooooOOO$",
"Oeyeeewe=w=we=$$$$$$$OOoo--e e----% %    @;2665532,..OOOOOOO$$$$",
"Oete=e**we=eew=*******&%%$$$$$$$$.oO$$$$$$$OooooooOO$*uuytrw*OO$",
"Oe=%%%%%%%%%%%%%%%%%%%%%%%%%%%%$$o.oO****&&%%%$%%***=e=ewe=euw.$",
"O=%ooooooooooooooooooooooooooooooo.XOrer*****%Ore=e=eee=e=e=e$.$",
"Oo.................................XOoOo$%%%%%Ouewweewwewee==$.$",
"$OoooXXXXXXXXXXXXXXXXXXXXXXXXXXXXXXXo$$oo.....o$$$$$$$$$$$$$$$.$",
"$$$$OOOOOOOOooooooooooooooooooooooooo$$$$oooooo$$..............$",
"................................................................"
};
