/* XPM */
static char *portecellule[] = {
/* columns rows colors chars-per-pixel */
"64 64 25 1",
"  c #000000",
". c #181818",
"X c #000031",
"o c #00003B",
"O c #212121",
"+ c #2A2A2A",
"@ c #383838",
"# c #000046",
"$ c #000051",
"% c #00005D",
"& c #000069",
"* c #000075",
"= c #424242",
"- c #515151",
"; c #696969",
": c #797979",
"> c #000086",
", c #000093",
"< c #0000A0",
"1 c #0000AE",
"2 c #0000BC",
"3 c #0000D8",
"4 c #0000E7",
"5 c #0000FB",
"6 c #301DFB",
/* pixels */
"&&&&&&&&&&&&&&&&&&&&&&&&&&&++&&&&&&&&&&&&&++&&&&&&&&&&&&+&&&&&++",
",,,,,,,,,,,,,,,,,,,,,>>>*&&..,,,,,,,,>****..,,,,,,,,**%$.<<<<>..",
",,,*,&,,>&>>&>>>&&,*&&&&%$# .,,>>*,,>****# .,1<1<11111>& <<*>*  ",
",>&11>>&,,>,$>>$*&&>>&&%$$# .,>,,*>>&*&,%# .,<11,12<1,>& ,,<>#  ",
",*,11%>&&>,,*&$*%>$&%$$#### .,>**>>&*&%#$# .,1<,21<,>**% *%&&#  ",
",*&,>*$>>&,,,>**&%$$%&$%$## .,,*,,&%%%*$## .,1,242,1,>%& >*%$#  ",
",>>&&&>,>&&,,*%*#&$$$###### .,,,**&%***%$# .,<1,11,,<&&% >&###  ",
",,>>&&&>&$**&&>&%%%$$$&&#$X .,,*&***&*&$## .,<1<,<<<,&%& >$#$#  ",
",>&>,,*>&>%&**$$$**%$$&&&#X .,>**%*,,&%&#$ .,<2<<1,,,>%$        ",
",***,>>&$&&&**%#****&#$&&#X .,**%&&**%$#$# .,<1,<,,*>*$# ><<<,  ",
">&*,>>>>$%%&#%#&$&**&$$X##X .>*&%%**%&$#$# .,<11,1,**&$$ ,<><*  ",
">*>&&,>>&#&#&&#$$*$&&#X#XXX .>*&%%%*#%#%## .,<11<,*,>&$$ >,*>$  ",
">&>&$**&$&$&$#%#%#####$#XXX .>&*%%$$%$#$$# .,<11,>>&*%## >,>%#  ",
">>&&&%$##$..........................................&&#$ **&$%  ",
">&>$$%$&$%.::;;;;;;;;;;;;;;;;;;;;;;;;;;;;;;;;;;;--=O%$## &%$##  ",
"          .:-@@@@@@@@@@@@@@@@@@@@@@@@@@@@@@@@@@@@@@O$#$#        ",
"1<,<,,,,,<.;@@@@@@@@@@@@@@@@@@@@@@@@@@@@@@@@@@@@@@@O&$## %22222$",
"<,>,1<,*,,.;@@                                  =@@O&%$# *22312&",
"<>>*,,*&>>.;@@   +O     +O     +O     +O    +O  =@@O&%#$ ,2353<&",
",>,,>>&&&>.;@@   =+     =+     =+     =+    =+  -@@O$#$$ ,223<2%",
"*><1*&&>>&.;@@   -+     -+     -+     -+    -+  -@@O%$$# <22<,<$",
",*><*&>&&$.;@@   -+     -+     -+     -+    -+  ;@@O%### 122<2,$",
"*<<>,>&&>$.;@@   -+     -+     -+     -+    -+  ;@@O$#o# <2<1<,%",
",<<<>&>>&%.;@@   -+     -+     -+     -+    -+  ;@@O%#$# <2<,>1%",
"<><<**>>&&.;@@   -+     -+     -+     -+    -+  ;@@@#$## ,22<22%",
",*&****&>%.;@@   -+     -+     -+     -+    -+  ;@@-$$$# ,2<21<%",
">&*,*>>*&$.;@@   -+     -+     -+     -+    -+  ;@@+$#$$ ,222<,$",
"><>>&>>>&$.;@@   -+     -+     -+     -+    -+  ;@@-$$%# *222<<%",
"**&&>&>>%#.;@@   -+     -+     -+     -+    -+  ;@@-###$ *2<22,$",
">*&>&%%%$#.;@@   -+     -+     -+     -+    -+  ;@@@##XX *221<<$",
"*>>*%>*%##.;@@   -+     -+     -+     -+    -+  ;@@O#%XX *22<>,#",
"**&**>>*%#.;@@   -+     -+     -+     -+    -+  ;@@O&&#X *2<2<>#",
"*,>%&&>>%#.;@@=-;-@==   -+     -+     -+    -+  ;@@O$&$# *2<2**#",
",>**&%%%%$.;@@@@@@@@@   -+     -+     -+    -+  ;@@O*$## *22*>*#",
">>*&&&%###.;@@@@@@@@@   -+     -+     -+    -+  ;@@O*&%# %2<2>>X",
"**&%$$$###.;@@@@@@@@@   -+     -+     -+    -+  ;@@O&%oo %2<>>*X",
"*$%&$#%###.;@@@@@ @@@   -+     -+     -+    -+  ;@@O$$$# %<<>**X",
">&$&$%####.;@@ @ OO@@   -+     -+     -+    -+  ;@@O%XX# %<>*>*X",
"*>*%&%###$.;@@O@ OO@@   -+     -+     -+    -+  ;@@O#XXX %<>>>*X",
">*&$%&%##$.;@@@@ @O@@   -+     -+     -+    -+  ;@@O$#XX %>>>&>X",
"          .;@@@@O-O@@   -+     -+     -+    -+  ;@@O$o##        ",
".....##%%*.;@@@@@O@@@   -+     -+     -+    -+  ;@@O#### .%%%%  ",
".>,<111111.;@@@@@@@@@   -+     -+     -+    -+  ;@@O$#%# .%#&#  ",
".,11111<,<.;@@@@@@@@@   -+     -+     -+    -+  ;@@O     .###%  ",
".,1<<,<<11.;@@@@@@@@@   -+     -+     -+    -+  ;@@O......      ",
".111<<11<<.;@@          -+     -+     -+    -+  ;@@O111111<<<,  ",
".1,<,<<<<<.;@@   @+     -+     -+     -+    -+  ;@@O,<<<,,<1,*  ",
".11<>*<<>1.;@@   =+     -+     -+     -+    -+  ;@@O,,<,>11>>*  ",
".11>,1<*,<.;@@   -+     -+     -+     -+    -+  ;@@O>,<>*&>%*&  ",
".1111,*1*<.;@@   -+     -+     -+     -+    -+  ;@@=,<,>>,&&&%  ",
".1,1>,,1<>.;@@   -+     -+     -+     -+    -+  ;@@-,>>*,**>$#  ",
".1<>>131,*.;@@   -+     -+     -+     -+    -+  ;@@+<,><&%>>$#  ",
".1,1,363>>.;@@   -+     -+     -+     -+    -+  ;@@->&>&*>>&$#  ",
".1<1,131,&.;@@   -+     -+     -+     -+    -+  ;@@-*,*&*,*%$#  ",
".1,1,<<***.;@@   -+     -+     -+     -+    -+  ;@@@&*>>>*%$##  ",
".,1,>,&&,*.;@@   -+     -+     -+     -+    -+  ;@@O%&*>&$#$%#  ",
".1,1<**<&&.;@@   -+     -+     -+     -+    -+  ;@@O$%&%#XX%$#  ",
".1,1,>*&$*.;@@   -+     -+     -+     -+    -+  ;@@O&%$%#XX$$#  ",
".<,***,$oo.;@@   -+     -+     -+     -+    -+  ;@@O&$%#%#####  ",
".<,%$*$,oo.;@@   -+     -+     -+     -+    -+  ;@@O&#$####$$#  ",
".,,**$*#$#.;@@   -+     -+     -+     -+    -+  :=@O%$#$#$$$$$  ",
".,>$$$$$$$.-@@--;;;;;;;;;;;;;;;;;;;;;;;;;;;;;;;::=@O&&$$$$$$$$..",
"+&&&&&&&&&.=@@@@@@@@@@@@@@@@@@@@@@@@@@@@@@@@@@@@==@O&&&&&&&&&&+O",
"==========+OOOOOOOOOOOOOOOOOOOOOOOOOOOOOOOOOOOOOOOOO@==========@"
};
