/* XPM */
static char *sandstonenormal[] = {
/* columns rows colors chars-per-pixel */
"128 128 51 1",
"  c #D3BD6C",
". c #D3BF70",
"X c #D6C172",
"o c #D9C576",
"O c #D6C47A",
"+ c #DAC679",
"@ c #DDC97C",
"# c #D9C684",
"$ c #DECC83",
"% c #DDCC8A",
"& c #DFD08E",
"* c #DDCD93",
"= c #DFD194",
"- c #DED19C",
"; c #E1CE84",
": c #E2D086",
"> c #E5D48C",
", c #E2D293",
"< c #E8D791",
"1 c #EBDB97",
"2 c #E2D59C",
"3 c #ECDD9B",
"4 c #EFE09F",
"5 c #F0E19F",
"6 c #DFD3A0",
"7 c #E3D6A3",
"8 c #E4D8A6",
"9 c #EDDFA2",
"0 c #E6DBAA",
"q c #E9DEAE",
"w c #E9DFB0",
"e c #EFE1A3",
"r c #EEE2AA",
"t c #F2E4A5",
"y c #F3E6AB",
"u c #ECE2B4",
"i c #EFE5BB",
"p c #F2E6B2",
"a c #F4E9B4",
"s c #F1E7B9",
"d c #F5EABC",
"f c #F6EDC4",
"g c #F7EFC9",
"h c #F8EFCB",
"j c #F7F0CF",
"k c #F8F0CE",
"l c #F6EFD0",
"z c #F7F0D3",
"x c #F9F2D2",
"c c #FAF4DC",
"v c #FBF7E3",
/* pixels */
"cvvvvvvvvvvvvvxxxxxxxxxxxxxxxxxxxxxxxxzkxzzxlllzxxxxxxxxzzxxxxlzzzzzxxxxxxxxxxxxxxxxxcvvvvvckkgglgllflilgcvcvcvvcllxxxxxxxxxxxx9",
"gcvvvvvvvvvvvcxxxxxxxxxxxxxxxxxxxxxxxxzzcxgklllzxxxxxxxxzlxxxzlggzcxxxxxxxxxxxxxxxxxxxcvvvvvckggglfllflllvcccvvvllxxxxxxxxxxxf1@",
"ggcvvvvvvvvvvcxxxxxxxxxxxxxxxxxxxxxxxxxgzvggllllxxxxxkxxllllggglcvxxxxxxxxxkxxxxxxxxxxxcvvvvvckkfllfliflvccvvvvzxxxxxxxxxxxxd1@@",
"gglcvvvvvvvvvcxxxxxxxxxxxxxxxxxxxxxxxxkglvvglfllxxxxxzzhgglgghcvvxxxxxxxxxxxxxxxxkxxxxxxvvvvvvcklffllllcvcvvvvzzxxxxxxxxxxfy1@@@",
"fllfvvvvvvvvvcxxxxxxxxxxxxxxxxxxxxxxlllflvvclglfllllggglhgggxvvcxxxxxxxxxxkxxxxxxxxxxxxxxvvvvvvvllllllzvvcvvvcxxxxxxxxxxxdt3@@@@",
"lflllcvvvvvvvcxxxxxxxxxxxxxxxxxxxxxxllgllvvvlglfflffhglggglvvvvxxxxxxxxxxxxxxxxxxxxxxxxxxxvvvvvvzillllvcvvvvcxxxxxxxxxxhyt3@@@@@",
"illfflvvvvvvvcxxxxxxxxxxxxxxxxxxxxzlllgggvvvvlfllffllfflxcvvvvxxxxxxxxxxxxxxxxxxxxxxxxxxxxxvvvvvvvlilvcvvvvvxxxxxxxxxxftt3@@@@@@",
"lllfllgvvvvvvcxxxxxxxxxxxxxxxxxxkzzlllgllzvvvclfilllflllvvvvcxxxxxxxxxxxxxxxxxxxxxxxxxxxxxxxvvvvvvclvvvvvvvxxxxxxxxxlatt5@@@@@@@",
"flllilllcvvvvcxxxxxxxxxxxxxxxxxxxxxjkgggkxvvvvxklflikzvvvvvcxkxxxxxxxxxxxxxxxxxxxxxkxxxxxxxxxvvvvvvvvvvvvvcxxxxxxxxftttt;@@@@@@@",
"liillllzvvllkfdadddgggxxxxxxxxxxxjxjgggggcvvvvcxllllcvvvvvcxxxxxxxxxxxxxxxxxxxxxxxxxxxxxxxxxxxvvvvvvvvvvcxfddaaayytttt5@@@@@@@@X",
"lillllvvvvllgdtttttt5ttttyaaaaddfkfdgggjxvvvvvccllcvvvvvvcxxxxxxxxxxxxxxxxxxxxxxxxxkxxxxxxzgkffxzzzlkgfkdttttttttttttt@@@@@@@@o ",
"llflzvvvvvzghdttttttttytttttytttte31213ukxxccccclvvvvvvvvxxxxxxxxxxxxxxxxxxxxkkgkxxkaayattttt14dlfllggkfyttttttttttttt@@@@@@@o  ",
"lfllcvvvvvvgggatttttttttttttttttt44114tgkggggggglfgglgzgadffkgkkxkhgdfdaayyyttttdxxdttttttttt19dflgggggyyttttttttttttt@@@@@@@X  ",
"ilcvvvvvvvvggggdtttttttttttttttte1111yggggggggggflgfggdtttttttttttttttttytttttttdxxatttttttt311dggggggpttttttttttttttt@@@@@@X   ",
"lcvvvvvvvvvlggggdttttttttttttttt4111ykgggggfggghflfgggptttttttttttttttttttttttttaxxytttttttt111aggfggatttttttttttttttt@@@@@o    ",
"cvvvvvvvvvvcgggghgttttttttttttt5111pkfgggggggggxlflggggettttttttttttttttttttttttaxktttttttt4111pggggfrtttttttttttttttt@@@@o    X",
"vvvvvvvcccccgggghgdyttttttttttt551aggggggdyyaaddggghgghdttttttttttttttttttttttttaxftttttttt3111yggggggdytttttttttttttt@@@@    $7",
"vvvvvvcxxxxxgggghgggtttttttttt555affggggdtttttyttydhggggatttttttttttttttttttttttaxdtttttttt1111tggggggggfatttttttttttt@@@X  O=87",
"vvvvccxxxxxxagggggggdatttttt5511dggggggdtttttttttttaggggdtttttttttttttttttttttttaxattttttt311119gghhgghghhfdyt5ttttttt@@o  %7888",
"vvccxxxxxxxxaaggggggggyttttt555dggggggdtttttttttttttdghggdttttttttttttttttttttttyxy5tttttt311113gghdgghhgghhkdaytttttt@+XO278888",
"vcxxxxxxxxxxdtydggggggdatttt55dggdhghatttttttttttttttdxgggatttttttttttttttttttttyxttttttt4111113ghgghhghgggggggfdyyttt@X%8888888",
"cxxxxxxxxxxxftttaghhggggattt5fgggghhatttttttttttttttttdgggdtttttttttttttttttttttyfttttttt1111111dhgghdddgggggggggkdatt$28888888=",
"xxxxxxxxxxxxxttttadhgggggattfggggghattttttttttttttttttydgggdttttttttttttttttttttydttttttt1111111dggghattyddhkggggggggd9888887%@@",
"xxxxxxxxxxxxxyttttadggggggdfggggggattttttttttttttttttttadgggattttttttttttttttttttatttttt41111111dgggktttttttadgggggggh88882$@@@@",
"xxxxxxxxxxxxxatttttydkgggggggggggyttttttttttttttttttttttygggdytttttttttttttttttttyttttt4<1111111dhggfttttttttttadkfkgk77,@@@@@@@",
"xxxxxxxxxxxxxdtttttttaggggggggggattttttttttttttttttttttttygggattttttttttttttttttttttt54111111111ahggdtttttttttttttyaff%@@@@@@@@@",
"xxxxxxxxxxxxxgttttttttyfgggghhdattttttttttttttttttttttttttafggyttttttttttttttttttttt511111111111afggattttttttttttttttt@@@@@@@@@@",
"xxxxxxxxxxxxxxtttttttttydggghdyttttttttttttttttttttttttttt5aggdyttttttttttttttttttt5111111111111dfggyttttttttttttttttt@@@@@@@@@@",
"xxxxxxxxxxxxxxattttttttttahhdyttttttttttttttttttttttttttttttaggattttttttttttttttt54<4<11111111ysffggtttttttttttttttttt@@@@@@@@@@",
"xxxxxxxxxxxxxxatttttt5ttt5adyttttttttttttttttttttttttttttttttdggytttttttttttttt5551111111113uffggggdtttttttttttttttttt@@@@@@@@@@",
"xxxxxxxxxxxxxxdytttt55555yytttttttttttttttttttttttttttttttttttdgdtttttttttttttt54111111114pfgggggggatttttttttttttttttt@@@@@@@@@@",
"xxxxxxxxxxxxxxkttttt4445aatttttttttttttttttttttttttttttttttttttdhatttttttttttt541111111tdggggggggggatttttttttttttttttt@@@@@@@@@@",
"xxxxxxxkxxxxxxkt555<<44dgtttttttttttttttttttttttttttttttttttttttdgytttttttt5551111155adhgggggggkggxttttttttttttttttttt@@@@@@@@@@",
"xxxxxxxxxxxxxxh54<44<4dgatttttttttttttttttttttttttttttttttttttttyfdtttttttt51111115adgxhggggggggggdttttttttttttttttttt@@@@@@@@@@",
"xxxxxxxxxxxxkka4<4444fgftttttttttttttttttttttttttttttttttttttttttyfatttttt5111515agggggdggggggggggattttttttttttttttttt@@@@@@@@@@",
"xxxxxxxxxxxkkky14<<tfggattttttttttttttttttttttttttttttttttttttttttydyttt551155adggggggggggggggggggdttttttttttttttttttt@@@@@@@@@@",
"xxxxxxxxlllfgg0111tgggdttttttttttttttttttttttttttttttttttttttttttttydttt5555adhggggggggggghggggggggdtttttttttttttttttt@@@@@@@@@@",
"xxxxxxxxlfllgg915adggxatttttttttttttttttttttttttttttttttttttttttttttyy5555afggggggggggggdggddfggggggdytttttttttttttttt@@@@@@@@@@",
"xxxxxxxkflgfgg13aggggdttttttttttttttttttttttttyttttttttttttttttttttt5yyyafgggggddadaayaytttttydggggghdyttttttttttttttt@@@@@@@@@@",
"xxxxxxxglfllgf9sgggggatttttttttttttttttttttttttttttttttttttttttttttt55aaayyytttttttttttttttttttdgggggggatttttttttttttt@@@@@@@@@@",
"xxxxlllllflillifggggdttttttttttttttttttttttttttttttttttttttttttrtt4>5aytttttttttttttttttttttttttdgggggdgattttttttttttt@@@@@@@@@@",
"xxxxllflflllllflggggytttttttttttttttttttttttttttttttttttttttttte5444datttttttttttttttttttttttttttdgggghhgatttttttttttt@@@@@@@@@@",
"xxzxzllflilzvllfgggdtttttttttttttttttttttttttttttttttttttttttt41<44gdtttttttttttttttttttttttttttttagggggggdttttttttttt@@@@@@@@@@",
"xxzzllflfllvvlflgggytttttttttttttttttttttttttttttttttttttt55441115ddtttttttttttttttttttttttttttttttaggggghxdtttttttttt@@@@@@@@@@",
"xxxxllfflgvvvgggggdttttttttttttttttttttttttttttttttttttttt44<4>1tggattttttttttttttttttttttttttttttttahgggghhdatttttttt@@@@@@@@@@",
"xxxxlfllgcvvvgggggytttttttttttttttttttttttttttttttttttt5544>4<4eggattttttttttytttttttttttttttttttttttaggggdgggyttttttt@@@@@@@@@@",
"xxxxllflzvvvvggggggatttttttttttttttttttttttttttttttttt444><4<4yfgdttttttttttttttttttttttttttttttttttttahgggggggatttttt@@@@@@@@@@",
"xxxxflllvvvvcfggggghdytttttttttttttttttttttttttttttt44<4>44>4ugggytttttttttttttttttttttttttttttttttttttaggggggggdttttt<@@@@@@@@@",
"xxzlhglvvvvvktygggfhhfattttttttttttttttttttttt55554<4<111114ufggatttttttttttttttttttttttttttttttttttttttaggggggggdtttt>+@@@@@@@@",
"xxlgglvvvvvxatttdhhhggkfytttttttttttttttt5tt544<44<4<441114ifgkdtttttttttttttttttttrtttttttttttttttttttttafgggggggdttt1+@@@@@@@@",
"xxzggzvvvcxxattttafkgghggdtttttttttt55tt544=44>4&4<<1<<<44ddgggtttttttttttttttttttttttttttttttttttttttttttyggggfghxdyt4@@@@@@@@@",
"xxhgcvvvcxxxytttttydhhfhgggatttttttt5444<4<44>4<4<<414<4effgggyrttttttttttttttttttttttttttttttttttttttttttydggggghhhft4@@@@@@@+@",
"zlhlvvvlxxxkttttttttahgghgggdytt4744444444rrrrryrrupyupudfgggdttttttttttttttttttttttttttttttttttttttttttt5afggggggggdhy@@@@@@@@@",
"xlhvvcllxxxktttttttttydgdgghggffffffffffgdfffdfdffddddfdfdgggyttttttttttttttttttttttttttttttttttttttttttt5fggfgggggghhg&@@@@@@@@",
"xhcvxxxxxxxftttttttttttdgggggggggggggggggggggggfggggggggggggatttttttttttttttttttttttttttttttttttttttttt45agggdgkggggggge1@@@@@@@",
"lcvxxxxxxxxdttttttttttttaggggggggggggggggggggggggggggggggggatttttttttttttttttttttttttttttttttttttttttt44tfggattdgggggggt6-@@@@@@",
"zcxxxxxxxxkatttttttttttttydhgggggggggggggggggggggggggggggffyttttttttttttttttttttttttttttttttttttttttt4>4dkgattttydfkkggrr66$+@@@",
"xxxxxxxxxxxytttttttttttttttdgfggfddadddddddddaaappppaaaaaaytayttttttttttttttttttttttttttttttttttttt5441yggatttttttaffgguu688%@@@",
"xxxxxxxxxxxytttttttttttttt5gggggattttttttttttttttttttttttttttdatttttttttttttttttttttttttttttttttttt41<efgdttttttttttpfku60088&@@",
"xxxxxxxxxxktttttttttttttt5tgggggytttttttttttttttttttttttttttttddyttttttttttttttttttttttttttttttttt4<14igfttttttttttteyai066088>@",
"xxxxxxxxxxgtttttttttttttt4akgggftttttttttttttttttttttttttttttttdgatttttttttttttttttttttttttttttt41111rffytttttttttttttt4=888888=",
"cxxxxxxxxxdtttttttttttt544dggggdttttttttttttttttttttttttttttttttdgdyttttttttttttttttttttttttttt411114fgrttttttttttttttt4@&288888",
"vvxxxxxxxkdtttttttttttt5<4fggggatttttttttttttttttttttttttttttttttdggatttttttttttttttttttttttet411111afrrttttttttttttttttt4<28688",
"vvvxxxxxxxattttttttttty5<tkggggttttttttttttttttttttttttttttttttttydggdyttttttttttttttttttttt4411114efatttttttttttttttttttttttrur",
"vvvvxxxxxxytttttttttte415dggggdttttttttttttttttttttttttttttttttttttdgggatttttttttttttttttttt4<4<4<4iattttttttttttttttttttt544>&1",
"vvvvvcxxxxttttttttttt4<15dggghdttttttttttttttttttttttttttttttttttttydgggdytttttttttttttttttt<4<44<uattttttttttttttttttt4@@@@o@++",
"vvvvvvcxxktttttttttte4115fggggatttttttttttttttttttttttttttttttttttttydggggattttttttttttttttt<<<4<4uttttttttttttttttttt5<@@@@@@@@",
"vvvvvvvvxfttttttttt44<11afggggytttttttttttttttttttttttttttttttttttttttdggggdytttttttttttttt54<4<4r5tttttttttttttttttttt&@@@@@@@@",
"cvvvvvvvcfttttttttt41111dggghdttttttttttttttttttttttttttttttttttttttttydgggggatttttttttttt554<&4r4ttttttttttttttttttttt@@@@@@@@@",
"xxvvvvvvvxatttttt441<414gggghattttttttttttttttttttttttttttttttttttttttttdgggggdytttttttttt5111444ttttttttttttttttttttt5@@@@@@@@@",
"zhxvvvvvcxfatttt44>44<4agggghytttttttttttttttttttttttttttttttttttttttttttdhggghgaytttttttt51111e45tttttttttttttttttttt4@@@@@@@@@",
"xzgcvvvvvkggatt51>4<4eadggfggtttttttttttttttttttttttttttttttttttttttttttt5aggggggdyttttttt5411yttttttttttttttttttttttt>@@@@@@@@@",
"xxggvvvvvgkggat54ragggggggghdytttttttttttttttttttttttttttttttttttttttttttt1afggggggatttttt4<5ydttttttttttttttttttttttt$@@@@@@@@@",
"xxlglcvvcggggkdfgkgfgggggggdhdtttttttttttttttttttttttttttttttttttttttttttt51agggggggdtttt5<4tgdttttttttttttttttttttttt@@@@@@@@@@",
"xxkgllcvcgggggggggggfgggggggggdttttttttttttttttttttttttttttttttttttttttttt515aggggggkgayt54tggytttttttttttttttttttttt5@@@@@@@@@@",
"xxxhfllcxggggggggggggggggggggggdytttttttttttttttttttttttttttttttttttttttttt545aggggggggdy5tggdttttttttttttttttttttt554@@@@@@@@@@",
"llllllfzggggggggggggggggggggggggdytttyttttttttttttttttttttttttttttttttttttt5<4<dgggggggggagggattttttttttttttttttttttt<@@@@@@@@@@",
"llllfllldfggggggggggggfaghgggggggfyyttttttttttttttttttttttttttttttttttttttt54<<4afggggfggggggyttttttttttttttttttttttt$@@@@@@@@@@",
"xllllifl5ddgggggggkgdatttdghggggggfytttttttttttttttttttttttttttttttttttttttt4<4<4aggggggggfgdtttttttttttttttttttttttt@@@@@@@@@@@",
"xlillllfdgggggggggdyytttttahhdggggggyttttttttttttttttttttttttttttttttttttt5544>445agggggggggattttttttttttttttttttttt4@@@@@@@@@+o",
"ggllgglzvvvvvclldatttttttttyghgggggggatttttttttttttttttttttttttttttttttt555<4<4<<44iggggggggyttttttttttttttttttttttt1@@@@@@@@@XX",
"ggfgggzvvvvvvvccxxgfdaattttttdggggggggattttttttttttttttttttttttttttttttt4444<4<44<4agggggggggatttttttttttttttttttttt>@@@@@@@+X  ",
"flllhzvvvvvvcxxxxxxxxdayttttttaggghggghattttttttttt5tttttttttttrttttt5t4<44<<4<<<<4dggfggggggddttttttttttttttttttttt@@@@@@@oX   ",
"lflfxvvvvvczxxxlfdaytttttttttttydgggggggdtttttttttt5tttttttttttettttt4<44<<44<<44<<fgggggggggggdtttttttttttttttttttt@@@@@@oX    ",
"lillvvvvcxxkfdytttttttttttttttttydgggggghdyttttt5555555555444>4144>444>4<4<<<4>4115ggggdyygkggggftttttttttttttttttt4@@@@oX      ",
"llzvvvcxfaytttttttttttttttttttttttaggggghghddaayt5541111<44<>411><4<>44>4>4<4>4414ygggdytttdggggkfatttttttttttttttt<@@ooX       ",
"lzvvzlxxdttttttttttttttttttttttttttadhhggghhgggggghdddaatt4444<34<>4<4<4<4>4>44>14agkdttttttdggggggattttttttttttttt<@@+XX    X X",
"lzczlcxxfttttttttttttttttttttttttttttdgggghdgggghhhgggggggggddaayr444<4>4<4<4<>4<4akatttttttydgghggfdtttttttttttttt@@oXX    X$+X",
"xxxxxxxxftttttttttttttttttttttttttttttagggggggggggggggggggghggfhgggfgddaaytt44>44taattttttttttdggggggdttttttttttttt+X  X XO=-%@@",
"xxxxxxxxkttttttttttttttttttttttttttttttydggggggggggggggghhfghghhggggggkggggggfddtttttttttttttttdhfggggdttttttttttt4X   X#%72$@@@",
"xxxxxxxxhttttttttttttttttttttttttttttttttdhgghgggghhghhgggfhfhkhggggggfddaaayyttttttttttttttytttaggggghgttttttttt4$X O&-68-$@@@@",
"xxxxkxxxkttttttttttttttttttttttttttttttttaggghhdggghgdhggghgfddaaayttttttttttttttttttttttttttttttaghggghgatttttt44+#--888=@@@@@@",
"xxxxxxxxxtttttttttttttttttttttttttttttttydgggggghgdddaaaytttttttttttttttttttttttttttttttttttttttttagghhhggatttte4u278888&@@@@@@@",
"xxxxxxxxxtttttttttttttttttttttttttttttt5adgggghdtttttttttttttttttttttttttttttttttttttttttttttttttttydhgggggdttrsfg08808$+@@@@@@@",
"xxxxxxxxxytttttttttttttttttttttttttttt55dhgggxdyttttttttttttttttttttttttttttttttttttttttttttttttttttyggggfgggffkkfu882$@@@@@@@@@",
"xxxxxxxxxytttttttttttttttttttttttttt554aghgggdtttttttttttttttttttttttttttttttttttttttttttttttttttttttydggggggkfkfku82@+@@@@@@@@@",
"xxxxxxxkxatttttttttttttttttttttttttt31rgggggdytttttttttttttttttttttttttttttttttttttttttttttttttttttttttdkgggggggghd<@@@@@@@@@@@@",
"xxxxxxxxxatttttttttttttttttttttyttt111sggggdytttttttttttttttttttttttttttttttttttttttttttttttttttttttttttdggggggggdy@@@@@@@@@@@@@",
"xxxxxxxxxatttttttttttttttttttttttt111rgggkdytttttttttttttttttttttttttttttttttttttttttttttttttttttttttttttdgggggggfy@@@@@@@@@@@@@",
"xxxxxxxxxdtttttttttttttttttttttt41114gkggdtttttttttttttttttttttttttttttttttttttttttttttttttttttttttt55ytttagggggggd:@@@@@@@@@@@@",
"xxxxxxxxxdytttttttttttttttttttt51111sggkdytttttt5tttttttttttttttttttttttttttttttttttttttttttttttt5515atttttaggggggk4@@@@@@@@@@@@",
"xxxxxxxxxdttttttttttttttttttt545111rgggdtttttttt4tttttttttttttttttttttttttttttttttttttttttttttttt544ayttttttafggggka@@@@@@@@@@+@",
"xxxxxxxxxftttttttttttttttt5t51<1114dggfttttttttt>tttttttttttttttttttttttttttttttttttttttttttttte545adttttttttygggggd=@@@@@@@@@@@",
"xxxxxxxxxhtttttttttttttttt55411111agkdtttttttttt:tttttttttttttttttttttttttttttttttttttttttttttt44<yfttttttttttygggggr&@@@@@@@@@@",
"kxxxxxxxxhtttttttttttttttt4<4<<41rggdttttttttttt@tttttttttttttttttttttttttttttttttttttttttttte41<4gatttttttttttyfkfkr6@@@@@@@@@@",
"xxxxxxxxxktttttttttttttt5411<44<1dgdttttttttttt4@ttttttttttttttttttttttttttttttttttttttttttt44114fdttttttttttttttdkkue2+@@@@@@@@",
"xxxxxxxxxktttttttttttte44<414<<1ygdtttttttttttt<@tttttttttttttttttttttttttttttttttttttttttt444<1dgatttttttttttttttffi68&@@@@@@@@",
"xxxxxxxxxxyttttttttttt41<4<1<4<4gfttttttttttttt>@ttttttttttttttttttttttttttttttttttttttttt41<<4agdtttttttttttttttttfj688@@@@@@@@",
"xxxxxxxxxxytttttttttt411111144<adyttttttttttttt:@ttttttttttttttttttttttttttttttttttttttt44<14<aggyttttttttttttttttttd8887@@@@@@@",
"xxxxxxxxxxyttttttttt41411111<<tdtttttttttttttte@@tttttttttttttttttttttttttttttttttttttte4111<yggatttttttttttttttttttt=88e=@@@@@@",
"xxxxxxxxxxatttttttt41111111144dttttttttttttttt4@@tttttttttttttttttttttttttttttttttttt4441141eggfttttttttttttttttttttt>&660$@@@@@",
"xxxxxxxxxxatttttt444111111114yttyt4444455ttttt<+@tttttttttttttttttttttttttttttttttttt44<11<4fggattttttttttttttttttttt1@&06-@@@@@",
"xxxxxxxxxxattttt4411111111edtttttypaaye4141141@Xo4ettttttetttttttttttttttttttttttttt1111113fggdtttttttttttttttttttttt4@@$88=@@@@",
"xxxxxxxxxxattttt411111114dfyttttttttyadfdye411o  111111134444ttttttttettttttttttttt1111111skggytttttttttttttttttttttt5@@@@86$@@@",
"xxxxxxxkxhttttt11111111rggtttttttttttttyadfgfp$oX<11111111111111<4444444ttttttttt41111111pgggatttttttttttttttttttttttt@@@@@ee@@@",
"xxxxxxxxkytttt1111111rgkgttttttttttttttttttyds887dar1111111111114<<411111111414431111111rggggttttttttttttttttttttttttt>@@@@@-=@@",
"xxxxxxxxattt: OXX+@&usffttttttttttttttttttttt>$,2kgggfaye1111111<4111111111111111111111eggggpttttttttttttttttttttttttt<@@@@@@-&+",
"xxxxxxxfttt:    XX&8888$@@@:::>><<4445ttttttt:@@@yadggkgggdpr1114<11111111111<111111119fggkftttttttttttttttttttttttttt4@@@@@@@=@",
"kxxxxxkttt$    X$78888$@@@@@@@@@@@@@@@@@:::>>@@@@4tttasggkkgkggaee11111111111411111113fkgggytttttttttttttytttttttttttt5@@@@@o++$",
"xxxxxkytt@    #288888&@@@@@@@@@@@@@@@@@@@@@@@@@@@@@@$;:><9uiiffkgggdie3,<><>>>>>>::$&qiisir<>>>>>>>>>>>:@@:::$::%$@@@@@@@oXX+@@@",
"xxxxxatt+   O2888888%@@@@@@@@@@@@@@@@@@@@@@@@@@@@@@@@@@@@@@$>-8888888877=#OO       .*68887@@@@@@@@@@@@@@@@@@@@@@@@@@@@+&+Xo@@@@@",
"xxkxgt5o  .%8888888&@@@@@@@@@@@@@@@@@@@@@@@@@@@@@@@@@@@@@@@@@@@&288888888886-*#OX  #68888>@@@@@@@@@@@@@@@@@@@@@@@@@@O$=oo@@@@@@@",
"xxxky3o .%78888888,@@@@@@@@@@@@@@@@@@@@@@@@@@@@@@@@@@@@@@@@@@@@@@@&,787888888866-**688882@@@@@@@@@@@@@@@@@@@@@@@@+XO=-@@@@@@@@@@",
"xxxa3X @288888888,@@@@@@@@@@@@@@@@@@@@@@@@@@@@@@@@@@@@@@@@@@@@@@@@@@@$,78888888888788888:@@@@@@@@@@@@@@@@@@+@@@oXO=--&@@@@@@@@@@",
"xxd1XO=888888888,@@@@@@@@@@@@@@@@@@@@@@@@@@@@@@@@@@@@@@@@@@@@@@@@@@@@@@@$&28888888888888>@@@@@@@@@@@@@@@@@@+OX X%-68%@@@@@@@@@@@",
"xg1X%88888888882@@@@@@@@@@@@@@@@@@@@@@@@@@@@@@@@@@@@@@@@@@@@@@@@@@@@@@@@@@@$&-88888888887$@@@@@@@@@@@@@@++oX X%-668&@@@@@@@@@@@@",
"h1%788888888872@@@@@@@@@@@@@@@@@@@@@@@@@@@@@@@@@@@@@@@@@@@@@@@@@@@@@@@@@@@@@@@@$,887888882@@@@@@@@@@@o@oX  X#--788&@@@@@@@@@@@@@",
"q2888888888882@@@@@@@@@@@@@@@@@@@@@@@@@@@@@@@@@@@@@@@@@@@@@@@@@@@@@@@@@@@@@@@@@@@@$,7888882@@@@@@@@@oXXX XO--6888=@@@@@@@@@@@@@@"
};
