/* XPM */
static char *stageun[] = {
/* columns rows colors chars-per-pixel */
"144 30 2 1",
"  c #AB0000",
". c #00FF00",
/* pixels */
"....         .......                     ......             ..............             ..........                 .........................     ",
"...            .....                     .....               ............                ........                 .......................       ",
".               ....                     ....                 ..........                  .......                 .....................         ",
".       ....    ...........       ..........        ...        ........        .......    .......       ..............................          ",
"        .....    ..........       .........        .....        ......        .........    ......       ..............................          ",
"       ......    ..........       .........       .......       ......       ..........    ......       ..............................          ",
"       .......   ..........       .........       .......       ......       ..........    ......       ..............................          ",
"       ....................       .........       .......       ......       ....................       .................................       ",
"       ....................       .........       .......       ......       ....................       .................................       ",
"        ...................       .........       .......       ......       ....................       .................................       ",
"         ..................       .........       .......       ......       ....................       .................................       ",
".         .................       .........       .......       ......       ....................       .................................       ",
"..         ................       .........       .......       ......       ....................       .................................       ",
"...         ...............       .........       .......       ......       ....................       .................................       ",
"...          ..............       .........                     ......       ....          ......              ..........................       ",
"....          .............       .........                     ......       ....          ......              ..........................       ",
".....         .............       .........                     ......       ....          ......              ..........................       ",
"......         ............       .........       .......       ......       .......       ......       .................................       ",
".......         ...........       .........       .......       ......       .......       ......       .................................       ",
"........         ..........       .........       .......       ......       .......       ......       .................................       ",
".........        ..........       .........       .......       ......       .......       ......       .................................       ",
"..........       ..........       .........       .......       ......       .......       ......       .................................       ",
"..........       ..........       .........       .......       ......       .......       ......       .................................       ",
"   .......       ..........       .........       .......       ......       .......       ......       .................................       ",
"   .......       ..........       .........       .......       ......       .......       ......       .................................       ",
"    ......       ..........       .........       .......       ......        .....        ......       .................................       ",
".    ....       ...........       .........       .......       .......        ...        .......       .................................       ",
".               ...........       .........       .......       ........                  .......                 .......................       ",
"..             ............       .........       .......       .........                ........                 .......................       ",
"....         ..............       .........       .......       ..........             ..........                 .......................       "
};
