/* XPM */
static char *stonebrick[] = {
/* columns rows colors chars-per-pixel */
"128 128 24 1",
"  c #4F4B49",
". c #524D4B",
"X c #55514F",
"o c #565250",
"O c #585351",
"+ c #5C5857",
"@ c #5E5B59",
"# c #615E5D",
"$ c #64615F",
"% c #656362",
"& c #696666",
"* c #6A6867",
"= c #6E6C6C",
"- c #716E6E",
"; c #71706F",
": c #737272",
"> c #787575",
", c #787877",
"< c #7C7A7A",
"1 c #817E7E",
"2 c #848282",
"3 c #898686",
"4 c #8A8989",
"5 c #939393",
/* pixels */
"OOOOOOOO+*%%+#%#+%oo++o++o+oooo+%++ooooooooo++oooooooooo+oooooo+oooo+oooo+++oooo++o++o+ooooo+oooo+++o+++=%%%%%:%%:=%%%+ooooo+ooo",
"OOOOXOO@,,,,,,,2,,<,,,,,,:,,:::::::==:::%%%%%=%+%+%%++oo+++o+oo+o+oooooooo++ooo+%=++%%%=%==:::::::,,,,,:,::,,:,,,,:::::+ooooooo+",
"OOOOOO%<4,<<22,,,22,,4,,,,,,,4,,,,,4:4,<,,,,,,,,:<<,,4,,,4,,:::::::::::,:::<4<,,,4,,:,4<,4:,,,,,,4,<4,<<,4:4,,,,4,::::::%ooooooo",
"OOOOO;<<,,2,,,2,,,2,,,4,,4,2,<,24,,,,,,,<4<<4,,4,<4,,<<<,,4,,,4,4<,,<<<<,<<<,<<<,,4,,,,,,<<,,4,4,<,,,,,4:4,,4,4,,,:::::::+o+oo+o",
"ooo#><11<<<,,,<,2,,,,2,,4,,,,,4,4,,,,,,,<<,<4,,,,,,,<,,4,4,4,,,,,,<<4,,<,,<,<<<<,4,4,,,,<<4,,<,,4,,,,:,,:,,:4,,,,,,:::::::%ooooo",
"oo%<<<<<,,44444<444,444,<,4,4<2,,,4,4,4:,4,,,,,:4,4,4,,,,,,,4,4,<<<<<,,,4,4,<<<<,,,,,4,:,4<,,4,,,,4,44444444444,444,,::::::%+oo+",
"+#<<<<<<,4444444444444444444444444,4444444,444444,<44,444,4,,4,44<<<4,,4,4<4,444,4444444444,44444444444444444444444,,,:::::::+oo",
"o#<<1<<44444444444444444444444444444444444444444444444444444444,4444444444444444444444444444444444444444,4444444444,4,4::::::+oo",
"o@<<<22444444424444444444444444444444444444444444444444444444444444444444444444444444444444444444444444444444444444,4,4<:::::+o+",
"o+<1<<44444444444444444444444444444444444444444444444444444444444444444444444444444444444444444444444444444444444444,4,<:::::+oo",
"+o<<<<24444244444455555554545444445444444444444444444444<4444444444<444444<4444444444444444444455445555454444444444,4,<4<::::%+o",
"oo,<<,2444444444555555555555555555555555544544555444544444444444444444444444444444544555555555555555444444444444444,4<4<<::::+oo",
"oo,<<<24444444455555555555555555555555555555555555555555555555554454545555555555555555555555454444444444444444,4444,<4<<:::::+o+",
"oo;1<<<444444445555555555555555555555555555555555555555555555555555555555555555555555555545444444444444444444444<444<4<4:::::+oo",
"o+=<<1144244445555555555555555555555555555555555555555555555555555555555555555555555544444444444444444444444444444<4<<<<<::::+oo",
"oo*<1<<444444555555555555555555555555555555555555555555555555555555555555555555554444444444444444444444444444444444,4<44<::::%+o",
"o+:,4,:4444455555555555555555555455555555555555555555555555555555555555545544444444,4444444444444444444444444444444,,4,<<::::%+o",
"o+%,,,,4444455555555555555455555444444544545555555555555555555555555554444444444444444444,4444444444444444444444444<4,4,<::::%oo",
"+o%,,,,44444555555554444444555554444444444444,444444454445455544554444444,4444444444444444444444444444444444444,444<,44,4::::%oo",
"oo%,4,,44445555555444444444455554444444444444444444444444444444444444444444444444444444444444444444,44444444444444444,,4,::::%o+",
"oo+,,4,4444455555444444444445555444444,4444444444444444444444444444444444444444,444444444444444444444444,4444444444<4,4,:::::%oo",
"o++,,,,44444555554444444444455544444444444444444444444444444444444,4444444444444444444444444444,4444444444444444444,,4,4,::::%oo",
"ooo,4,,444445555544444444444555444444444444444444444,444444444,44444444444444444444,4444444444444444,44444444444444444<,<::::%oo",
"o++,,,,,44445555444444444444455444444444444444444444444444444444444444444444444444444444444444444,444444444444444<4<,<<44::::=oo",
"+o+,,4,4444455554444444,444445444444444444444444444,4444444444444444444444444444444444,4444444444444,44444444444444,<44<,::::%oo",
"oo%,,,:444445555444444444444444444444444444444,444444444444444444444444444444444444444444444444444444444444444444444<<<,4::::=oo",
"oo+,,,,444455554444444444444454444444444444444444444444444444444444444444444444444444444444444444444444444444444444,4,,4:::::=o+",
"o+%,4,,4444455544444444444444444444,44444444444444444444444,44444444444,44444444444444444444444444444444<44444,44444,44,4::::=oo",
"oo%,,,44444455444,4444444,4444444444444444444444444444444444444444444444,44444,4444444444444,44444444444444444<4444,4<<4,::::= o",
"o+%,,,:444445544444444444444444444444444444444444444444444444444,4444444444444444444444444444444444444,4444444444444<,4<<::::=oo",
"+o%,,,,44445554444444444444444444444444444444444444,444444444444444444444444444444,44444444444444444444444444444444,,4,4<,:::=oo",
"oo=,4,,44445544444444444444444444444444444,4444444444444444444,444444444444444444444444444444444444444444444444444444,4,4,::::o+",
"o+%,,4,44444544444444444444444444444444,444444444444444444444444444444444444444444444444444444444444444444444444444,,4,4,:::::%+",
"oo:,,,,44445544444444444444444,44444444444444444444444,444444444444,44444444444444444444444444444444444444444444444,4,4,4,::::++",
"oo=,4,,444454444444,444,444444444444444444444444444,4444444444444444444444,44444,44444444444444444444444,44444444444,4,4,:::::+o",
"+o:,,,,44445444444444444444444444444444444444444444444444444444444444444444444444444444,4444,44444,4444444444444444,4,4,4:::::oo",
"oo::,,4444444444444444444444444444,444444444,44444444444444444,444444444444444444444444444444444444444444444444,444,4,,4<,::::oo",
"oo:4,4<44444444444444444444,44444444444444444444444444,4,44444444444444444444444444444444444444444444444444444444444,44,4:::::+o",
"oo:<,<4444444444444444,44444444444444444444444444444444444444444444444444444444,4444444444444444444444444444444444444,44,,::::oo",
"o+:,,<<444444444444444444444444444444444444444444444444444444444444444,444444444444444444,4444,44444444,44444444444,,4,,4,::::+o",
"++,,,,,4444444444444444444444444444444444444444444444,444444<4444444444444444444,4444444444,4444444444444444444444444<,4<,::::++",
"o+,4,,44444444444444444444444444444444444444444444444444444444444444444444444444444444444444444444444444444444444444,,4,4,::::+o",
"oo,,4,44,44444444,444444444444,444444444,444444444444444<4444444444444444444444444444,4444444444444444444,444444444<4,<4<:::::+o",
"o+,4,,,44444444444444444,444444444444444444444444444444444444444,4444444444,4444444444444444444444,4444444444444444<4<4<4:::::+o",
"o+,,4,444444,4444444,44444444444,44444,444444444444444444444444444444444444444444444444444444444444444444444444444,44,4,<:::::+o",
"o+,4,,44,44444444444444444444444444444444444444444444444444444444444444,4444444444444444444444444444444,44444444,,4,<,,44:::::%o",
"o+,,4,4444444444444444444444444444444444444444,444444444444444444444444444444444444444444444444444444444444444,4,4,4,4,4,,::::+o",
"o%4,,,,444444444444444444444444444444444444444444,4444444,444<44,444444444444444,444444444,44444444444444444444,,,4,4,4<4,::::%o",
"o%,,4,44444444444444444444444444444444,444<4<44<4<4<4,4,4,<<4<4,4,4,:44,4444,44444444444444444444444444444444<<44,4,4,44,,::::%%",
"o%,,,,4444444444,44,4,,444,<,44,,,,4,44,,44,4,,4,4<,,4,4,44<,4,4,4,44,:4,,,44,4:4<:4<,,4<44<44,44444444444444<4<,4,4,4,,4,::::%+",
"o%::::,44,,4:,4,44,4,4,44,,444,44,4,,4,4,<,4,4,,4,<4,4<44,,4<4,<,4,4,4,44,4,:4,44,4<4,44,4,44,4,:<4,:<,4<44<<44<4,4,4,,44,::::++",
"o%::::,,,4,,,4,4,,4,4,4,,4,,,<4,,4,44,4,4,4,4,<4,44,4,4,<4<,4<<44,4,4:4,,4,44,4,,4<,,4,<4:4,,4,4,4,4<44,4<,4<<<<:4,4,,4,,:::::%o",
"+%::::,4,4,4,44,,4,4,4,4,4,4,4,44,,4,4,44,<4,4<<4,4,,4:44,<4,4<4,4,4:4:4,,4,,4,44<<44<<<,44,4,4,4,4,,4,4,,4,<<444,4,4,,4::::::%o",
"o%::::,,4,4,4,,44,4,4,4,4,4,<,4,,4,,4,4,,44,4<44,4,44,4,,44,<,4<4,444:4444,44,,,<44<,<444,<,,4,<,44,4:4:<4,44<<<,4,4,44:::::::+o",
"o%:::::,,4,4,44,,4,44,,44,<44,<44,44,4,44<<4,<,<,4,,4,::<<<,<<:::,::::::::,,,,,,,<<,<,:<:<44<4,4,4,444<44,4,<4<44,4,44:::::::+ +",
"o%:::::::,4,4,,44,4,,4,,,4<<<<,:,,,,,,::,,:,:,:::::::::::::::::::::::::::::::::::::::::::::::,,,,,,:<<,,:4<,<4<<:4:4:,::::::+  o",
"oo+:::::::::::,,::,:::::::::::::::::::::::::::::::::::::::::::::::::::::::::::::::::::::::::::::::::::::::::::::<::::::::::o   +",
"o   =::::::::::::::::::::::::::::::::::::::::::::::::::::::=::::::::::::::::::::::::::::::::::::::::::::::::::::::::::::::+   oo",
"+    %:::::::::::::::::::::::::::::::::::::::::::::::::::::::::::::==%=%:===:::::::::::::::::::::::::::::::::::::::::::::o   ooo",
"oo    +::::::::::::::::::::::::::::::::::::%%===%%%%%++%+oo oo          +o      ooo++++%%%%==:::::::::::::::::::::::::::    oooo",
"ooo    o::::::::::::====%%%%%+%+:%+oo+          oo                                               ooo%%+%%%%%==:::::::::o   oooo+",
"oooo     +ooooo o+               o                                                                                o+o+    oooooo",
"o+o+o                                                                                                                    ooo+o+o",
"oooo+oo                                        o o oooo ooooooooooo +o+oo+o+ooooooo oooo                                oooooooo",
"OOXOOOOO.......X...X..XXXXXXXXXXXXXOXXOOOOOOXXXXO+++##OOOOOOOOOOoo+ooooo+oooooooOOOOOOOOOOOOOOOOOOOOOXXXOOOXX.XX.......XOOOOOOOO",
"OOOOOOOOXXXOXXXOXOOOOOXOXXXOXOOO+@@###&&&&--->>>>>>====#OOOOOOOOo+oooooooooo+oooOOOOOOOOOOOOOOOOOOOOOOOOOOOOXXOOOOXXXXXXOOOOOOXO",
"OOOOOOOOXXOOOOOOOOO$$$&&&&--->>>>>>>>>>>>>>>>>>>>>>======+OOOOOO+oooo+ooooooo++oOOOOOOOOOOOOOOOOOOOOOOOOOOOOOOOOOOXOOOOOOOOOOOOO",
"$O$$$$$-$---->>>>>>>>>>>>>>>>>>>>>>>>>>>>>>>>>>>>>>-====-=&OOOOOoo+oo+oo%==&&&&&&-&$$$$$$$$$$$$$$$$OO$OOO$OOOO$OOOOOOOOOOOOOOOOO",
">>>>>>>>>>>>>>>>>>>>>>>>>>>>>>>>>>>>>>>>>>>>>>>>>>>-========#OOOooooo+o=>>>>::<:>>>>>>>>>>>>>>>>>>>>1>>>>>->>>>>1>>>>>>>>>>>>>>>",
">>>>>>>>>>>>>>>>>>>>>>>>>>>>>>>>>>>>>>>>>>>1>111111>>>=======&OOoooooo=<>>>>:<<<>>>>>>>>>>>>>>>>>>>>>>>>>>>>>>>>>>>>>>>>>>>>>>>>",
">>>>>>>>>>>>>>>>>>>>>>>>>1>11>111111111113131213221>1>>-======XOoo+o+=::>>>>>:::>>>>>>>>>>>>>>>>>>>>>>>>>>>>>>>>>>>>>>>>>>>>>>>>",
">>>>>>>>>>>1>111111111111111131111313133113131312211>>>>>=====OOooo+=::<>>>><<:<>>>>>>>>>>>>>>>>>>>>>>>>>>>>>>>>>>>>>>>>>>>>>>>>",
"1111111111313113313131311311313331313131322222232211>>>1>>====OOOOO=>>>>><112211111111111111111111111111111111111111>1111111111>",
"3131131313311331131313133133133313131333333333333331>1>>>-==-&OOO+->>>>><1322222133331311313133111133111311331131311331111131313",
"131331313133311333133331333333333335333353533333322>1>1>>>====OOO#>>>>>122222222313311313131311331311333313113333113131331313131",
"3131131313333333333333335335335335535535333333323221>>1>>>====OOO#>>>>1222222222333333333313133313133133131331331331313313131313",
"3333333335335353555353355353353553533333313113131311>>>1>>====OOO#>>>>1222223233353535353535353533333333333333333331333333333333",
"535333553555353533353535353553533331331313133131322>>1>>>>===-OOO#>>>>1122222244535353533353355353535353335333333333333333333333",
"35353535535335535353535353333331331313313131221313211>1>>>=-==OOX+>>>>1222233554353535353535535335353535335335353333353535353535",
"5353535335353535353535355333333113313133131313313121>>1>>>====OOO+>>>>1322334445535353535533353553535353353553535535535353535353",
"3535535353535353353533333131131333133131313131313131>>>>1>&-==OOO+>>>>1113335353533535353353353355333533335335353535353535535335",
"53533535353535353333331313133131313113131313131313111>>1>>&-==OOX+>>>>1231333535355353533333333333335353553553535353535333353553",
"3535333355333333131331313131131313133133313131313111>>>>>---==OOO+>>>>1113335353535533331313331333133333353335333535353353533535",
"3353535333333333313113131313313331311311131313131321>11>1>&---+OOO>>>>1333353535353331333131313133333313333333333353535335355353",
"533333333131331313133131313131311313131313133313131>>>>1>>====OOOO>>>><113133553333131311313313111313131331313133333333333333535",
"533333131313313131311313131313133131313131311331313111>>>-====OOOO>>>>1331335353331333133131131333131313313131313331313133333353",
"3331313131311313131331313131313113131313131313131311>>1>1>=-==OOOO>>>>1113333535333131311331313131313131131313133313131333131333",
"3313331313313131313133131313131331313131313131313131>1>>>>-&==+OOO>>>>1133335353331313133133131313131313313131313131313133313133",
"3131313331313131313131313131313113131313131313132231>>>1>>===-OOOO>>>>1222233535333113131313313131313131131313131313131313133131",
"1313131113131313131313133313131331313131313131132211>1>1>>===-+OOO>>>>1122335353331331313131131313131313313131313131313131311313",
"3131311331313131313131311331313113131313131331313211>>>>>>====+OOO->>>1222233533313113131313313131313131133113131313131313133131",
"13131331131313131313131331131313313131313131131322211>1>>>====+OOO>>>-1122235353131331313131131313131313331331313131313131311313",
"3131131313133313131113131313313113131313313131312221>11>>>===-OOOO->>>1131313553313131331313313113133313313131311131131331313131",
"1313313131311331313331313131131331313131131313132221>>>>1>====+OOO->>>1213135333131313133131131331311331131313133313313113131313",
"31311313131313131313131313133131311333313131313122111>>1>>====+OOO->>>1231313351313131311313313113131313313131313131131331313131",
"13133131313131313131313131311313131313131313131322211>>1>-===-+OOO->>>>213133533131313133131131331313131131313131313313313131313",
"3113131313131313131331313113131331323131313113131311>>1>>>-===+OOO->>>1113133533313213131313132313131313313131313131131313313131",
"13313131313131313131131313313131131313131313313122111>1>>>====@OOO->>>>331313311131231313131313131313113131313131313313131131313",
"3313131333311313131331313133131331313131313113132311>1>>>>====@OOO&>>>>113133313312213131313131313133131311331313131131313313131",
"1331313113133131313113131313313113131313131331313131>>>1>>====@OOO->>>1131333331132231313131313131311313133113131313313131131313",
"311313133131313113313131131313133131313131313123131111>>1>====@OOO&>>>>113313313313113131313131331313131131313133113131313313131",
"1331313113131313311313133131313113131313131313223131>>>1>>====@OOO&>>>>331133122131331313131313113131313313131311331313133131313",
"3113131331313131133131313113131331313122322132221331>1>1>>====@OOO&>>>1131311313313113132313131331313131131313133313131313313131",
"1331313113131313311313131331313113131331132313223131>>>>>>==-=@OOO&>>>>113133131131331322131313113131313313131313131313131131313",
"3131131311313131131313133131313113131313313223221311>1>>>>&-==@OOO&>>>>122232213313131311323131331313131313113133133131313131313",
"1313313133131313313131311313131331313131131222233111>1>11>&-==#OOO&>>>>122222231131313133122313113331313131331311311313131313131",
"31311313313131131313131331313131132213133122222231>>>>1>>>--==@OOO&>>>>232312313323131311313131313133131133113313113131313131313",
"1313313113133131313131311313131331323131132222221>>11>>>>>&-==#OOO&>>>>113133131221313133131313131311313313331331331313131313131",
"31131313313131131313331331313131222213133223222<>>>1>>1>1>&--&#OOO&>>>>131313131313131312313222213131331131313313131131331311313",
"1331313113131331313113311313131322323131223131><1>>1>1>>>>----#OOO$>>>>222131313131313132231232231313113313131131313313113133131",
"313311313111311313133113313113313222131313131>1>>>>>>>11>>-&=-#OOO$>>>>132313131313131313222222211311131133311111331333331313113",
">11>11111111111111111111111311311211313231111>>>>11>1>>>1>&--&#OOO$>>>>1131313131313231321221111111111>1>>>>>1>1>>1>>>>>>1>1>11>",
"1>>>>>>1>>>1>11>>>1>>>11>>1>>>>1<<>>1>>1>>>1>>11>><<<<<>>>-===#OOO$>>>>1111111111>111>>>11>>>>11>1>>>>1-1>>>>>>111>>>>11>>1>>>1>",
">>1111>>11>>>>>>1>1>1>>>>1>>1>>>>>1>1>>1>1>>1>>>11>>>><<>>====#OOO@---&>>1>1>1>>1>>>>>1>>>>11>>>1-1111>1>>1111>>>>>11>>>>1>>1>1>",
">1>>>>1>>>1>1>>1>1>>1>>>>>111>1>>1<>>>>>>11>1>>1>>><<>><>-====%OOO@--&&>>>>>>>>11>>>11>>>>>11>><>>>>>>>>>>>>>>1>>>>1>>1>>>11>1>>",
">>1>>1>>>1>>1>>1>>>1>>111>>>>>1>>1><>11>>><>><>>>1<<><>>======#OOO@&-&->>11>11>>>>11>>>111>>>>1>>11>>11>>11>>1>>>1>>1>>11>>>>>>1",
">>>1>>>>>>>1>>1>1>>>1>>>>>1>>1>>><><><<>1>1>>11>>><><>>======%XOOO+-&--&>>>>>>>11>>>>1>>>>1>>11>>>1>>1-1>1>>>1>11>>>>>>>1>>>1>>1",
">>>>>>>>>>>->-->>>>>>>>>>>>>>>>>>>>>>>>>>>>>>>>>1>>1>-======+  OOOO&&---->>>>1>>>>1>>><>>1>>>>>>1>>>111->>>>>>>->>>>>>----->->>-",
"&-&-&-&-------&-&---&&-----&----=-=----->------->->--======O  XOOOOX&-&&-->>>>1>>1><>>>>>>>->>->1----------&--&-&---&&-&&-&--&-&",
"---&----&&-&-&---&&----&-&--&-&-====--======--=--==-=====&X   .OOOX O----&->>>->->-----=--==--==&-&--&--&&--&----&&-----&--&----",
"&-&----&-&-&---&-&-----&---&-&--========================%.   .OOOOX .O==--======--&--&==&--&---&-&--&&--&---&--&-&&--&&&---&---&",
"&--&-&--&&---&-&&-&-&&---&-----&=======================#    XOXOOOX.  O=-&======&&-&--==1&--&&----&----&--&-&--&---$--&$&$&$-&--",
".   .XXXXXXXOXXOO@OOO@OOOO$O$O$$####&&&&&&&&&&&=======O.   XOOOOOOOX   +-&--====1$-&=-=-&&----&-&&-&&&&$O$@OOOOOXX....  X..   ..",
"..     .  . .....X...X  X.......  .                       OOOOOOOOOOX   +-&-====-&&$&####O@OOXXXX...  ..... X.X.......  ....  ..",
"        ..    ...          ...                          .OOOXOOOOXOOOX  .OXOOX          .               ...   ...         ..    ",
"        ..     ...  ..     ...   .                    ..OOXOOOOOOOOOOOX                 ..              ..   .....  ...... .    ",
"XOOOOXXXXXXX.XXXXX.XXXXX...X......... . ..  .  .  .  ..OOOOOOOOOOOOOOOXX              . ..  . ..  X........X..XXXX.XOOOOXXOOOOXX",
"OOOOOOOOOOOXOOOXOOOXOOXOOOOOOOXXOOOOOOOOOOOXOOOOOXOOXOOOOOOOOOOOOOOOOOOOX        ........X..XXXXXXOXXXXXOOOOXXOOOOOXOOOOOXOOOOOX"
};
