/* XPM */
static char *stoneslab[] = {
/* columns rows colors chars-per-pixel */
"128 128 35 1",
"  c #6D6561",
". c #6E6863",
"X c #726A65",
"o c #756D69",
"O c #76706B",
"+ c #7A726D",
"@ c #7D7570",
"# c #7F7872",
"$ c #827A75",
"% c #867E79",
"& c #87807C",
"* c #8A827D",
"= c #8F8783",
"- c #8F8986",
"; c #908B86",
": c #938D8A",
"> c #97918D",
", c #99938F",
"< c #9B9592",
"1 c #9F9995",
"2 c #A19B97",
"3 c #A49E9A",
"4 c #A6A19D",
"5 c #A8A39F",
"6 c #A9A3A0",
"7 c #AEA9A5",
"8 c #AFABA9",
"9 c #B0ABA7",
"0 c #B1ADAB",
"q c #B5B1AF",
"w c #B7B3B0",
"e c #BAB6B3",
"r c #BCB8B5",
"t c #BFBBB8",
"y c #C3BFBD",
/* pixels */
"qrrrrrrrrrrrryyyyyyyyytrrrrrrrrrrrrrrrreeweeeteeteeeterrrrrrrrr1erweyyyyyyyyyyyyyyyyyyrrrrrrw0000000000000000000tyyyyyyyterrrrrr",
"0qrrrrrrrrrrryyyyyyyytrrrrrrrrrrrrrrrrrwww0wetetteteetrrrrrrrq<o00ryyyyyyyyyyyyyyyyyyytrrrrrr00000000000000000wtyyyyyyyyrrrrrrrr",
"00wrrrrrrrrrryyyyyyytrrrrrrrrrrrrrrerte00r000weeeettrerrrew06-X.wttyyyyyyrrrrrrrttyyyyyyrrrrrr000000000000080etyyyyyyytrrrrrrrre",
"000qrrrrrrrrrtyyyyytrrrrrrrrrrrrrrrtrew00re0000weteerwww0002-+X#tyyyyyyttrrrrrrrrrtyyyyytrrrrrr000000000000wrtyyyyyyyyrrrrrrrret",
"0000qrrrrrrreyyyyyrrrrrrrrrrrrrrerreee000tew00000qwq000008<-%+$%tyyyyyterrrrrrrerrrrtyyyytrrrrrw0000000000ertyyyyyyyyerrrrrrrrrr",
"00088qrrrrrrryyyyyrrrrrrrrrrrrrrteettw000wte0000000000007:--$$%=yyyyyytrrrrrrrrrrrrrrtyyyytrrrrrw0000000werrtyyyyyyyrtrrrrrrrrrr",
"4416667qerrtrtyyyyrrrrrrrrerrrrrettee0000weee00000000006-:<%$%==yyyyyterrrrrrrrrrrrrrrtryyytrrrrrw00000errrtyyyyyyyteertrewww888",
"--;;;--:11111688887678888qwwwerreteew0000wetew000000001->1=$%===yyyyytrrrrrrrrrrrrrrrretrtyytrrrrrw00weereweteweww86361111111111",
"--------:111116664111111111111111233,,<11288887667887>:<1>#&====yyyyrrrrrrrrrrrreeteeteete0rt088667<144111666666661111111111111<",
"--------:11116666411111111111111111:-----;2121,=----:<11,#%-====yyyrrrrrreqqq9997666433111111331111111<116666666311111111111111:",
"-------<11111166641111111111111111<-----;111112----,11<<%%--====yyrrrrrr111111111111111111111<<1111111114666666611111111111111<;",
"-----:1111111166541111111111111111;----:1211112<-:11111=%==-====ytrrrrrr211111111111111111111;,111111111666666611111111111111<--",
"----,1111111114666111111111111111,----;111112<2<111111:&=-======trrrrrrr31111111111111111111<->1111111166666664<1111111111111:--",
"--:<11111111111156611111111111111;---:2111112<22111111:-========errrrrrr31111111111111111111:-:11111116666664411111111111111>---",
"->111111111111111664111111111111:--;:21111112222111111,-=======%rrrrrrrr41111111111111111111--;11111146666664<1111111111111<----",
",111111111111111116631111111111,---:121111112<22111111:-======%$rrrrrrre4111111111111111111,---<11111466666461111111111111<;---;",
"1111111146311111111651111111111;=->22222<2366333322222:%=====*$$rrrrrrrr5111111111111111111:---,11111114466666111111111111;--->1",
"111111466664111111115511111111,-=>222<2226666666565522>$*====*$$rretrrrr611111111111111111<----:1111111111466664111111111:--;<11",
"111114666666411111111641111111--:22222<366666666666632>$%=====%$rrrertrr611111111111111111:----:111111111111156561111111,--><111",
"11146666666666111111115111111>-,22<<<23366666666666663,$$$====*$rretrete711111111111111111;-----111111111111111466311111;-,11111",
"1346666666666663111111141111,-<122222365666666666666662$$$%====$rrrrrrrr71111111111111111,------11111111111111111166111::1111111",
"4666666666666666511111114111:,11<2<23666666666666673663%$$$=====rrrrrrrr71111111111111111:------,111156541111111111111>>11111111",
"666666666434666665111111111><11122336666666666366666663=%$$$====rrrrrrrr9211111111111111<------->11116666664411111111<<111111166",
"666666643111346466641111111<111123366666666666663366663==$$$%===trrrrrrr9111111111111111:-------:1111666666666443111111111167666",
"6666644111111134466631111111111125666666666666322223663===$$$%==yrrrrrrr011111111111111;;-------;1114666666666666664311466666666",
"66654111111111111444441111111113566666666666632<22<2366====$$$==ytrrrrrr02111111112111;----------1114466666666666666666666666666",
"66411111111111111113464311111135666666666633222222<2236====%$$%=yyrrrrrr011111111111<------------,115666666446666666666666666666",
"4111111111111111111113463111136666666666632222<22222223=====%$$%yyrrrrrrw1111111112:------------->116666663111344666666666666666",
"11111111111111111111111134114666666666333222<222<2<222<$=====%$$yyyrrrrrw211111111:------------->,116666661111111113666666664111",
"1111111111111111111111111,1466656666663222<2222<2222222%%%====$$ryyrrrrrw2111111<;-----------:,111146666641111111111111111111111",
"1111111111111111111111<>-<36666666633222<2222<222<2<222$$$%====$rtytrrrrr111111,----------;,<11111146666611111111111111111111111",
"11111111111111111111>:--<1466666663222<222<22<2<2222<22%$$$$===*rryyrrrrr21111:--------;:111111111146666411111111111111111111111",
"11111111111111112<>;;;;<1566666652111111111111112222222%$$$$$*==yrryyrrrr2222:;==;;**><11111111111166666511111111111111111111111",
"111111111111111<:;;=-;<2265666651111111111111111,22<2,2%$$$$$$%=yrrryrrre22<=;==;;><31111111111211366666541111111111111111111111",
"1111111111111,:-;;;;;<1256666662111111111111111122222,2*$$$$$$$%yyrryrrrr3>;=:=><21121111111111111366666664111111111111111111111",
"11111111111>;---=;=;<1136666663111111111111111112,22222%$$$$$$$$eyyreyrre<-=:,<1<21111111111111111166666555411111111111111111111",
"11111111<:------:;;<1136666663111111111111111111,22,222*$$$$$$$$eryyerre0<>21111211111111111211111114666666631111111111111111111",
"1111111<--------*:<212566666521111111111111111112222222*$$$$$$$$rreeyerwe6121111211112111122221111111466666653111111111111111111",
"1111111>--------*11113666566211111111111111111112222<22=$$$$$$$$rrrryeeer6111222322334456656652211111146656655311111111111111111",
"1111111--------;<1113666666211111111111111111111,22,222=$$$$$$$$rrre0eryy9636666666666666666655211111114666666431111111111111111",
"111111,-------;<111255566631111111111111111111112<222<2=$$$$$$$$rew0wryyy0666666666666666666666511111111356666652111111111111111",
"111111;------;<1111466666411111111111111121111112<2<222=$$$$$$$$w90qrtyyy0666666666666666666666663111111135666666111111111111111",
"111111------;<1111366666521111112111111111111111222<22<:$$$$$$o 000rtyyyy0666666666666666655566664111111111666666511111111111111",
"11111>-----;<111124666663111111111111111111111112<22<22=$$$$o   00rryyyyyy666666666666634333356666431111111146666651111111111111",
"11111------,111111356666521111111111111111111111<222<22:$$$     9eryyyyyyy233232222222<21111123566643111111125556665111111111111",
"1111,-----,1111111235666641111111111111111111111222<222:+       eryyyyyyyq212221211122<21111111246665111111111456655411111111111",
"1111;---->111111111125666621111111111111111111112<2222,&       $rryyyyyyy9112211211111221111111111456521111111146566641111111111",
"111<---->1111111111111366641111111111111111111112<22,=-$      o$ryyyyyyyy0112211111111111111111111134662111111113666654111111111",
"111>---:111<23321111111255632111111111112<222<21,>:----&     X$$ryyyyyyrr02<22<211111111111111111111225521111111135566632222<<22",
"111;--;112126666311111112465211111111111222<,>:--------*     $$$yyyyyyyerw2<21<2111111111111111111111113621111111125556532<222<2",
"11,--:11<2366666632111111135321111121211,>:------------*    $$$*yyyyytrrrw22<222111121111111111111111111232111111111556553222<22",
"11;-;<11266666666662111111135211111<<:;----------------=   $$$$=yyyyyrrrrr22222<111111111111111111111111111<1111111125655522222<",
"1<--1113666666666666321111111321<:;--;;;-------=-------=  +$$$==yyyyyrrree<222<211111111111111111111111111:121111111113555522222",
"#oO&&&:,<<,<11<,12336311111111<1<:<<:::::>>:::::-:::---- $$$$*==yyyyrrrrr722<2221111111111111112111111111;>122,,<>:;;;;:,,::%%$$",
"#.@#%=-=====*%$$$$%*==*%%%&*&***=-::;;<<,,<22<221111111<$$$$%===yyyyyrrr022<2<<2211111111,,,,::::;****%$X $$$$$$$$$$$$$$%====$$$",
"+@#&==-====*$$$$$$$$%***%$$$$%$$$$$$$$$$$$$$$$$%&&&**-==$$$%====yyyyyyr02222;===*%*%%$$$$$$$$$$$$$$%$$$  $$$%=*%$$$$$$$$%%===*$$",
"@&=-=====*%%$$$$$$$$$$$$%%$$$$$$$$$$$$$$$$$$%%%%%%%%%******%====yyyyyyy222,*$$$$$$$$$$$$$$$$$$$$$$$$$o  X$$$*===%$$$$$$$$$%*==*%",
"*--*====*%$$$$$$$$$$$$$$$$%$$$$$%=*=============--=-=======*%===yyyyyy332=$$$$$$$$$$$$$$$$$$$$$$$$$$X   $$$*=====*%%$$$$$$$%===*",
"*;-*==*%$$$$$$$$$$$$$$$$$$o$$$$$============================*$*=yyyyy653*$$$$$$$$$$$$$$$$$$$$$$$$$$    o$$*========*$$$$$$$$%*==",
";*;;==$$$$$$$$$$$$$$$$$$$$X$$$$$==-===========-==============*$%yyyy932==%$$$$$$$$$$$$$$$$$$$$$$$$     $%*====;=====*%$$$$$$$$*=",
";*====*%$$$$$$$$$$$$$$$$$ X$$$$&=================-============*$yyy65>==*;%$$$$$$$$$$$$$$$$$$$$$$     $$*=========;===*$$$$$$$$*",
"%;====*%$$$$$$$$$$$$$$$$  $$$$$*================================yw32====;=*%$$$$$$$$$$$$$$$$$$$o     X$$=======%*=======%$$$$$$$",
"$%*;;==*$$$$$$$$$$$$$$$$  $$$$$*==========*=%***%%%%%%%$%%======y6*$*=======%$$$$$$$$$$$$$$$$$       $$*======%$$%%*===;=*$$$$$$",
"$$%**;==%$$$$$$$$$$$$$$   $$$$$*======$$$$$$$$$$$$$$$$$$$$$%====9=%$$%=====;*$$$$$$$$$$$$$$$$       o%;*=====%$$$$$%$%**===%$$$$",
"rrrrtyyyyrrrrrrrrrrrrrw000rrrrryyyyyyyrrrrrrrrrrrrrrrrrrrrrrrtyyyyyy9yqyyyyyyyqyrrrrrrrrrrrrw0000000eyyyyyyyyeerrrrrrrrrtyyyyrr2",
"rrrrrtyyyyrrrrrrrrrrrw000wrrrryyyyyyyrrrrrrrrrrrrerrrrrrrrrrrrrtyyyyyyyqyyyyyyyqrrrrrrrrrrrr0000000wyyyyyyytrrrrrrrrrrerrrrrtt3$",
"rrrrrrtyyytrrrrrrrtrw0000rrrrryyyyyyyrrrrrrrrrrrrrrrrrrrrrrrrretqyyyyqyqqyyyyyyyetrrrrrrrrrw0000000tyyyyyyyrrrrrrrrrrrrrrrrr01*%",
"werrrrrryyyrrrrrrrer00009rrrrryyyyyytrrrrrrrrrrrrrrrrrrrrrrrrrtewywyyyyyyqqyyyyytrrrrrrrrrrw000000tyyyyyyyerrrrrrrrrrrrrrrr82*$$",
"ewerrrrrryytrrrrrre800000rrrrryyyyyyrrrrrrrrrrrrrrrrrrrrrrrretetywyqyyyyyqyqyyyyyttrterrrrt000000eyyyyyyyerrrrrrrrrrrrrrre62;$$$",
"r8werrrrrryytrrrrr000000wtrrrryyyyyyerrrrrrrrrrrrrrrrrrrrrrrtereqyqyy99yyyqyqyqyyytrerrrrre00000qyyyyyyyrrrrrrrrrrrrterre52:$$$$",
"ew8wrrrrrrrtyrrrr0000000wrrrrtyyyyyyrrrrrrrrrrrrrrrrrrrrrrrretteyqyqqyqyqqyqyqyqyyytterrrrw00000tyyyyyytrrrrrrrrrrrrerrq22<%$$$$",
"re88wrrrrrrrrtre80000000rrrrryyyyyyyrrrrrrrrrrrrrrrrrrrrrrrretetqyqyyqyqy99yqyqyettyttrrrr00000tyyyyytttrrreterrrrrrrr022<%$$$$$",
"rr000wrrrrrrrre8wweerrrrrrrrryyyyyyyrrrrrrrrrrrrrrrrrrrrteetetrerrrrrrrry99wyywweteyyrrret0080eyytyyytwww088067653332<<22*$$$$$$",
"rrw000wrr11336343666668899890rttyyyyrrrrrrrrrrrrrrrrrrrreeteeerrrrrrrrreqyqq9ywyrrtewtw0803<167888661111<111111122222222;$$$$$$$",
"rre0000wr11111111111111111112136566652233353567666889980qwwwwrterrqqq09977321223111111411<;:11666663111111111111222,222>$$$$$$$$",
"rre80000e111111111111111111111125666621111111111111111111111111122<22222<1<***>1111111131>:<13666663111111111111<2222,2%$$$$$$$$",
"rrrq0000w1111111111111111111111125666322111111111111111111111111<<222<2<2<2>:;;,111111111,1113666661111111111111222222,$$$$$$$$$",
"rrrq00008,111111111111353111111112565621111111111111111111111111222<2<22222<*:;;,<1111111111166666611111111111112<2,2<>$$$$$$$$$",
"req000000,:111111111256665211111112566611111111111111111111111112<2222<22,2,:;;*->111111111136666661111111111111222222:$$$$$$$$$",
"e00000000<111111113666666653111111115663111111111111111111111111222<<2222222:;;:--,1111111113666663111111111111122,222;$$$$$$$$+",
"00000000q5111112366666666666311111112556111111111111111111111111<222<<2211<:-------:1111111146666661111111111111<<2222*$$$$$$$X ",
"0000000wr6111345666666666666631111111236311111111111111111111111<2<222<2<:---------:1111111114666665111111111111222<<2*$$$$$$.  ",
"000000err71356666666666666666652111111135211111111111111111111112<2222<:-----------,11111111113666663111111111212<2<22%$$$$+    ",
"0000weerr055666666666666656666663111111133111111111111111111111<222<,>;;-----------111112111111256666211111111112222<2%$$$$     ",
"000weetyyw66666666666532236666666311111123121<<<<<<,<><,:::>::::;;--;=;=----------,11113463111111566661111111111<222<2$$$O      ",
"00ertyyyyw665666666532221123566666511111111<<,<::;-----;;;------;---;;-;----------<11136664311111146663111111111<2<22,$$X       ",
"0etyyyyyyw666666532111111111123666652111111111111111<<<:,::--;--;-;--------------:1114666666311111136663111111112222<>$X        ",
"tyyyyyyyyw66664321111111111111123666531111111111111111111111<<<,<::;-------------,1246666666631111113666211111112<2<2=         $",
"yyyyyyyyyr6632111111111111111111112566321111111111111111111111111111111<::,::;---13666666666663111111166611111111122;$      X$*;",
"yyyyyyyyyr321111111111111111211111112363211111111111111111111111111112111223334436666666666666641111111563111111111:=$   Xo$%*;*",
"yyyyyyyyrw21111111111111111111111111211332221111111111111111111122223346666666666666666666666666311111113621111111:==+ X+$$*==;*",
"yyyyyyrrrw21111111111111111111111111111122<211111111111112233336666666666666666666666444334666666511111113621111<;;==$$$$%*;=;*;",
"yyyrrrrrrw1111111111111111111111111111122:<11111112333366666666666666666666666643332111111133446665111111124111<;-:<2$$$%=======",
"yrrrrrrrrw11111111111111111111111111111<;<21111266666666666666666666666663332211111111111111113455551111111232:;:2111$$*========",
"rrrrrrrrrr1111111111111111111111111121<-:21112236666666666666666663332211111111111111111111111111355511111111<<11111<%========*%",
"rrrrrrrrrr211111111111111111111111112:-;1211125666666666666653321122112111111111111111111111111111113531111111111111<========*$$",
"rrrrrrrrrr11111111111111111111111111:--<111126666666653331111111222<22,2<22,2222<2222<<2<222<2<2111111111111111111152=======*$$$",
"rrrrrrrrrr411111111111111111111111<:--:1111266666662111111111111<<22,2222222,2<<22<2222222<<222211111112111111111156,======%$$$$",
"rrrrrrrrrr41111111111111111111111<----11112666666311111111111111222222<22<2222222<2<2<2<22222<2<11111<<6611111111366,;====%$$$$$",
"rrrrrrrree4111111111111111111111,----<11116666663111111111111111,22,2222222,2222222<22222<2<222<1111::66661111111136:====*$$$$$$",
"rrrrrrrrrr611111111111111111111:----:11136666661111111111111111122<2,22<22222<2,222222<<22<222<2111::366666111111115:====*$$$$$$",
"rrrrrrrrrr6<11111111111111111<:-----111366666411111111111111111122<22222,22,2<22,22<<222<222<2221<;-<666666531111111-==-==%$$$$$",
"rrrrrrrrrr711111111111111111<------,11366666311111111111111111112222<2222222222<2,2<22<222<222<2<--<3666666663111111%=====%$$$$$",
"rrrrrrerre61111111111111111>------:1136666611111111111111111111122,222<<22,2<2222222<222<2<2<22,-->2666666666631111>$*=====$$$$$",
"rrrrrrrrrr7111111111111111>-------123666642111111111111111111111,2222222<2222<<2222<2,222222<2:--:14666666666663112>$$*====%%$$$",
"rrrrrrrrrr71111111111111<:-------,1366663<211111111111111111111122<2,22,22<222222,2<2222<2<2,---;116666666666666322;$%%==;=*$$$$",
"rrrrrrrrrr7111111111111<--------:2366643221111111111111111111111222222222<22<<2<2,222,,2<22,----<166666655456666632;$$$%====$$$$",
"rrrrrerrre811111111111,---------<6666621121111111111111111111111,22<22,222<<22222222222222:----,1466666663116666665*$$$$*===%$$$",
"errrrrrrrr0<111111111,---------,366632111111111111111111111111112,22,22,2222222<2222222<2:=---:21666666631111366666:%%$$%===%$$$",
"rrrrrrrrrr0111111111>---------:466632112111111111111111111111111222,2222<2<22<22<<2<2<2,-----:,25666666611111113666;*%$$$%===%$$",
"rrrrrrrrrr011111111>----------4666321122222<2122111111111111111122222222<2<2<2<2222222>=-----2226666666111111111266===%$$$%==%$$",
"rrrrrrrrrrq1111111:--------->46631,,::,,,,222<2211111111111111112,22,22,2222<2222<<22:------>2266666664111111111222*===%$$%*=%$$",
"rrrrrrrrrrw111111:--------;1466432221<::==:-:->:>,,<<<2<2<2<22<22<221111111111111112:------>2236666665211111111121,$**;;%%$%**%%",
"rrrrrrrrrrw1111<--------;,146641223321222<>:------:-:-:::>>,,<<<22,211111111111112,=------:22266666663111111111122:$$$*=;%$%%*%%",
"rrrrrrrrrrw111<;------;>114666111112363322222,>:------------=:--=:=::,,,<<1111112,:=-----:<22366666641111111111122=$$$$%*;*%$**%",
"rrrrrrrrrrr11<;------>1116666411111122364432<2222<>>-------------=:=---------::,,===-----<<22666666421121<,>>***%%$$$$$$%%**$$*%",
"rrrrrrrrrrr1<------:<11146666111111111113466633222<22<,>::--=:------------------==:=::*%,2226666342****%$$$$$$$$$$$$$$$$$$$%*%%%",
"rrrrrrrrrr7,-----:<1111466663111111111112223666643222<2<<<,::=------------------%%=:**%$:===:===****$$$$$$$$$$$$$$$$$$$$$$$$%*$%",
"rrrrrrrrr8>;--=;>1111136666511111111111122222364666642<2<2221<,,;----------**$$@$ $ $  $$$$=====***$$$$$$$$$$$$$$$$$$$$$$$$$$$$%",
"rrrrrrrr7:--%$*=:::;:,11111,>;::>,,,,,,,>>>,,,,223334664322<11222,:=%@@oo.    ..      $$$$*=====**$$$$$$$$$$$$$$$$$$$$$$$$X $$$$",
"rrrrrrr6:;*oX$$$$$$$*=====-$$$$$$$$$$$$$$$$$$$$$$%*=-======*%$$$$$$$$$$+X            $$$%%*>:**>**$$$$$$$$$$$$$$$$$$$$$XX $$$$$$",
"rrrrrr7:;$X+$$$$$$$%======&$$$$$$$$$$$$$$$$$$$$$$$$$%=========*%$$$$$$$$$#@Oo       $$$$%:***>**%%$$$$$$$$$$$$$$$$$$$X  $$$$$$$$",
"errrr7:=oo$$$$$$$$%=======#$$$$$$$$$$$$$$$$$$$$$$$$$$$%==========**%$$$$$$$$$$@O   $$$$$%*>**>**%$$$$$$$$$$$$$$$$$$   X$$$$$$$$$",
"rrrr7;#o$$$$$$$$%%=====;=%$$$$$$$$$$$$$$$$$$$$$$$$$$$$$$%*==========*%%$$$$$$$$$$$$$$$$$:***>**$$$$$$$$$$$$$$$$o    o$$$$$$$$$$$",
"rrr6=@@#$$$$$$$$%======*=$$$$$$$$$$$$$$$$$$$$$$$$$$$$$$$$$$*============*%$$$$$$%$$$$$$$**:****$$$$$$$$$$$$$$X    X$$$$$$$$$$$$$",
"rr6=+#$$$$$$$$$%=======;%$$$$$$$$$$$$$$$$$$$$$$$$$$$$$$$$$$$$%*==========--*&%$$%%$$$$$$%%*:*%%%$$$$$$$$$$$     X$$$$$$$$$$$$$$$",
"r6##$$$$$$$$$$%=======-*$$$$$$$$$$$$$$$$$$$$$$$$$$$$$$$$$$$$$$$%*===========--=&%%$%$$$$$$*>%$$$$$$$$$$$       $$$$$$$$$$$$$$$$$",
"6#$$$$$$$$$$$%========-%$$$$$$$$$$$$$$$$$$$$$$$$$$$$$$$$$$$$$$$$$%*==========-==**%%$$$$$%%%$$$$$$$$$$       $$$$$$$$$$$$$$$$$$$"
};
