/* XPM */
static char *wood[] = {
/* columns rows colors chars-per-pixel */
"128 128 46 1",
"  c #292114",
". c #302617",
"X c #312718",
"o c #332818",
"O c #3A2E1C",
"+ c #3E311E",
"@ c #41331F",
"# c #443621",
"$ c #473822",
"% c #493A23",
"& c #503F26",
"* c #514027",
"= c #554329",
"- c #59462A",
"; c #5D4A2C",
": c #634C2D",
"> c #644F30",
", c #665131",
"< c #685332",
"1 c #6F5935",
"2 c #715735",
"3 c #725B36",
"4 c #765E38",
"5 c #785E39",
"6 c #77603A",
"7 c #7C633B",
"8 c #81673E",
"9 c #83683F",
"0 c #876C41",
"q c #896E42",
"w c #8E7144",
"e c #927446",
"r c #947748",
"t c #967949",
"y c #9B7D4B",
"u c #A07F4D",
"i c #9E804D",
"p c #A2824E",
"a c #A48550",
"s c #A88651",
"d c #A78852",
"f c #AB8B53",
"g c #B18E55",
"h c #AF9057",
"j c #B39157",
"k c #B7965B",
/* pixels */
"%%%%%%%%%%%%%;,,,,,<e1%%$%%%%-1we800008::8009q99qqq9q00eeeeeeee8%@+ooooo&;:-%%%%%Oo+%%%%%%%%%%%#%<,,,,,,;o       oOO+%*@OOOOO  o",
"%%$%%%%%%%%$%=,,,,<9e<%%%%%%%:eweeyqq8::::80qqqqq9q9q00eeeeeeee8%%%$OooO:<,,-%%%oo.oO%%%%%%%%%%%%,,,,<,,<o       oOO****@OOo    ",
"%%%%%%$%%%%%%=,,,,1ee;%%%%%$%9eeeejq0::::::8q99qqqqq000qeeeeeee3%%%%%@o=<,,,,*%Ooo.oo@%%%%%%%%%%%;<,,,,,,O       oO%*****OO.    ",
"%%%%%%%%%%$%$;,,,,7e9=%%%%%%;eeeeeke8::::::8q9qq9q9q000weeeeeeq<%%%%%%=<,,,,,:#ooooooO%%%%%%%%%%%;,,,,,,,+       o@=*****Oo     ",
"$%%%%%$%%%%%$;,,,,we3=%%%%%%7eeeeeje2::::::89qq90000000qeeeeee5<%%%%%%39<,,,,,#ooooooo@%%%%%%%%%%-,,,<,,,$       o%*****&O      ",
"$%%%%%%%%%%%$;,,,3ew<=%%%%%%7reeeeke2::::::8q9q900000000eeeeew<<%%%%%%4e9,,,,,=oo.oooo+%#%%%%%%%%=,,,:,,,%       o$*****&O.     ",
"$%%%%%%%%$%%%;,,,7e7<=%%%%%;1eeeeege8::::::8qq9q00000009eeeee8<<%%%%%=<ee6,,,,>oooooooo%%%%%%%%%%=<,,,,,,%       oO*****&Oo     ",
"@%%$%%%%%%%%$-,,,9e1<=%%%%%:<weeeejqq::::::89qqq00000000weeee4<<%%%%%;<9ee1,,,,@ooooo.o@%%%%%%#%%&,,,,,,;o       OO&****&O.     ",
"$%%%%%%%%%%%%;,,,e9<<=%%%%*<<7eeeejqq3:::::9000000000000weeee<<<%%%%%,<4ee9<<,,%ooooo.o@%%%%%%%%%%<:><><;$       O+$*****OO.    ",
"$%%%%%%%%$%%%;,,1t7<<*%%%%=<<1eeeejeq8:::::00q0000000008qeee9<<<%%%%*<<1eet7<,,-ooooooo+%%%%%#%%%%,<<><>-$      XOO+*****OOO    ",
"@$%%$%%%%@%%%;,,6w6<<*%%%%;<<<weeeg099:::::00000000000q8qeee7<<<&%%%;<<<9tw9<,,-oo.oooo@%%%%%%%%%$:<><><*@      oOOO*****OOO    ",
"@%%%%%%%%%%%%;,,7e<<<*%%%%<<<<0eeeg0qq2::::0000000q000q8qeee2<<<&%%%:<<<9tee4,,*+ooooo.@%#%%%%%%%%:<<><<%$      OOOO$****OOO    ",
"@%%%%%%%%%%%%:,,9w<<,*%%%*<<<<7eeeg0988::::000000000q008qeee:<<<&%%%<<<<5eee9<<*@oooooo@%%%%%%%%%%;<<:<;%$      OOOO$****OOO    ",
"$%%%%%%%%%%%%;,,w9<<,*%%$=<<<<3eeeg9q88::::00q0000000098qee9<<<<*%%*<<<<1eeet4,&%oooooo#%%%%%%%%%%-<<<<-$$.    .OOOO+****+OOo   ",
"@%%%%%%%%%%%%:,<e6<<<*%%%;<<<<1weeg09q0::::q000000000008qee8<<<<*%%-<<<<<weet9,%%oooooo%%%%%%%#%%%-<><>*%$.    .OOOOO****+OOo   ",
"@%%%%%%%%%%%%:,1e1<<<*%%%;<<<<<wees000q::::0000000000008qee5<<<<*%%;<<<<<9eeee1%#Oooooo#%%%%%%%%%%=<<><&%@.    .OOOOO****+OOO   ",
"+$%%%%%%%%%%%><6e<<<<*@@*,<<<<<7eed9q993:::90000000000q70tt1<,<<*%%><<<<<7eeee7%%+ooooo$%%%%%%%%#*=,,,>$*@X    OOOOOO****OOOO.  ",
"+%%%%%%%%%%%%,,791<<<@*%*,<<<<17eep9qq94::<q0q0000q000q60ww<<<<<&%%<<<<<<6eeee9%%@ooooo%%%#%%%%%$$=,,>>*$@X    OOOOOO$***+OOOX  ",
"+%%%%$%%%%%%$,<77<<<,**@=<<<<<<6eepqqq98::<q0000000000060w0<<<<<*%*<<<<<<3eeeew&%#ooooO%%%%%%%%%$**,,,;$$@X   .OOOOOO+***$OOOX  ",
"+%%%%%$%$%%%%,<97<<<,*@*-,,<<,,1eep99qq9:::00000000000060w7<<<<<*%=<<<<<<<eeee9=%$ooooo%%%%%%%%%$$*,,,-$$@X   XOOOOOOO***+OOOo  ",
"O%%%%%%%%%%%%<<e6<<<:%*@;<<<<<<<teyq0000:::wq000000000040t6<<<<<=%-<<<<<<<weee9;%%ooooO%%%%%%%%%$$*>,,=$*+O   XOOOOOOO**=+OOOO  ",
"O%%%%%%%%%%%%,,91<<<,%@*><<<<<<<qet90000<::q0000000000030w6<<<<<&%;<<<<<<<9eet9<%%OoooO%%%%%$%%%*$*>,,*$$Oo   XOOOOOOO***#OOOO  ",
"O%%%$%%%%%%%*,>i1<<<;%%@,,<<<<,<9et000002::q0q000q00q0010t1<<<<<&%:<,<<<<<7eee71%%+ooo+%%#%%%%%%$$$,,,$$$OO   OOOOOOOO***$OOOO. ",
"o$%%%%%%%%%$*,<w<<<<;*%*<<<<<<<<7tt000q02::q0000000000010w<<<<<<&%<<<<<<<<7eee7<-%+ooo+%%%%%%%%$$*$,<>$*$OO   OOOOOOOO$***OOOO. ",
"o%%%%%$%%%%$=<39<,<<;$$*<<<<<<<<7et9qq006::00000000000010w<<<<<<*%<<<<<<<<3tee7<;%@ooo+%%%%%%%%%*$*;,;*$$OO  .OOOOOOOO@**$OOOOX ",
"o%%%%%%%%%%%=<69<<<<-$*=<<<<<<<<4ee900007::0000000000q0<00<<<<<<*&<<<<<<<<1wee6<:%#ooo+%%%%%%%%%$$$>,;$$$OO  .OOOOOOOO@***OOOOX ",
"o%%%%%%%$$$$=,67<<<<-*$=<,<<<<<,3ee900009::q00000000000<09<<<<<<*=<<<<<<<<<tee7<<%%ooo@%%%%%%%%%*$*>,-*$#OO. .OOOOOOOOO***XOOOO ",
"o%%%%%%%$*$$-<76<<<,=$*;<<<<<<<<<ee900009:,0000000000q9,q7<<<<<<*-<<<<<<<<<wee6<<&%ooo@%%%%%%$%%#$$;,=$$@OO  XOOOOOOOOO***OOOOO ",
"o$%%$%%%*$$*;<73<<<,**+;<<<<<<<<<we9qqqqq<:9000qq000007<06<<<,<<%;<<<<<<<<<0tw1<<*%ooo@%%$%%%%%%$#*;,*$$@OO  XOOOOOOOOO***OOOOO ",
"o+$%%%%%$$$$;<91<<<<***;<<<<<<<<<qe89q999<:900000000007<w3<<<<<<*;<<<<<<<<<0et6<<=%Ooo#%%%$%%%%%$*$;,*$*@OO. OOOOOOOOOO***+OOOO ",
"o+%%%%%%$$$$,,q1<<<<*+*,<<<<<<<<<9t8qqqq92:900000000007<w1<<<<<<%;<<<<<<<<<7ee1<<-%+oo@%%%%%%%$%*$$->*$$+OO. OOOOOOOOOO$**+OOOO ",
"o+%%%%$%*$$*,,9<<<<<$*$<<,<<<<,<<8e7q9q993<9000000000q7<w<<<<<<<*<<<<<<<<<<6ee1<<;%+oo#%%%%%%%%%$$*->$$*OOO  OOOOOOOOOO***+OOOO.",
"o+%%%%%%%%%%,,9<<<,,%%%<<<<<<<<<<7t6qq99q6:99w990000006<w<<<<<,<%<<<<<<<<<<6ee1<<;%+oo$%%%%%%%%%*$$;,*$$OOO  OOOOOOOOOO$**@OOOOX",
"o+%%$%%%%%%%,,9<<<<,%%*<<<<<<<<<<6t69wqq96,9999w00000q3<w<<<<<<<&<<<<<<,<<<4ee1<<>%$oo$%$%%%%%%$$$$;;$$$OOO.XOOOOOOOOOO$**$OOOOX",
"oO%%%%%%%%%&,<91<<<>%%*<<<<<<<<<<6w6999997>79ww90000003<0<<<<<<<&<<<<<<<<<<1ee1<<,%@oo$$%%%%%%%%$$$-;$*@OOO.XOOOOOOOOOO@**$OOOOo",
"oo%%%%%%$%%*,19<<<<;%%=<<<<<,<<<<1t3w9www7:7w9w90000001<0<<<<<<,*<,<<<<<<<<1ee<<<<%@oo$%%%%$%%%%*$$;;$$#OOOX.OOOOOOOOOO+**$OOOOO",
"oo%%%%%%%%%=,17<<<<-%%-<<<<<<<<<<1e399w997:799w9000000<<8<<<<<<,=<<<<<<<<<<<ee1<<,$$oo$%%%%%%%%%%%$--$%@OOOXXOOOOOOOOOO+**%OOOOO",
"oo%%%%%%%%%-,37<<<<=%%;<<<<<<,<<<<t3999999:79ww9000009<17<<<<<<,=<<<<<<<<<<<ee1<<,%%oo$$%%$%$%%%%%$;-$%+OOOXXOOOOOOOOOOO***OOOOO",
"o.@%%%%%%%%;<36<<<<*%%;<<<<<<<<<<<e69w9ww9:7w99w000007<17<<<<<<<-<<<<<<<<<<<ee<<<<%%Oo$%%%%%%%%%%%$;=%%+OOOXoOOOOOOOOOOO***OOOOO",
"oo@%%%%%%%%:,63<<<<&%%;<<<<<<<<<<<w679w9w9,79w99000007<37<<<<<<;-<<<<<<<<<<<9e<<<<%%oo$%%%%%%%%%%%$-=$$OOOOXoOOOOOOOOOOO***OOOOO",
"ooO%%%%%%%%:<61<<<<%%%;<<<<<<<<<<<e7799w9w,4999e000006<66<<<<<<;;<<<<<<<<<<<9t1<<<%%Oo$$%%%%%$%%%%%-*%$OOOOooOOOOOOOOOOO***@OOOO",
"ooO%%%%%%%%,,71<<<,%%%><<<<,<<,<<1974w9999<49999000006<63<<<<<<;;<<<<<<<<<<<9w<<<,%%Oo$%%%%%%%$%$%%-*%@OOOOoOOOOOOOOOOOO%**$OOOO",
"ooO%%%%%%%&,<7<<<<;$%%,<<<<<<<<<<<97399ww913999e000001<63<<<<<<;><<<<<<<<<<<9e1<<,$%Oo%%$%%%%%%%%%%-%%@OOOO.OOOOOOOOOOOO***$OOOO",
"ooo%%%%%%%=,<7<<<<;%%%<<<<<<<<<<<<9939w99w11ee9900000<<61<<<<<<-><<<<<<<<,<<7t<<<>$%+o$%%%%%%%%%%%$-%%OOOOO.OOOOOOOOOOOO$**%OOOO",
"o.o%%%%%%%=,<7<<<<=%%%<<,<<<<,<<<<99<9999921999e00009<171<<<<<<=><<<<<<<<<<<7e<<<>%%+o%%$%%%%%%%%$%-$%OOOOO.OOOOOOOOOOOO$***OOOO",
"ooo@%%%%%%;,<7<<<<=%%%<<<<<<<<<<<<99<79w992<9e9900007<<7<<<<<<,=,<<<<<<<<,<<7e1<<;%%+o#%%%%%%%%%%%$-$$OOOOO.OOOOOOOOOOOO$***OOOO",
"ooo+%%%%%%:,<7<<<<%%%%<<<,<<<<<<<<7w<7999e4<w99e00007<<8<<<<<<<=<<<<<<<<<<<<7w<<<;%%+o$%%%%%%%%$%%%-%@OOOOOoOOOOOOOOOOOO$***@OOO",
"ooo+%%%%%%<<<7<<<<%%%&<<<<<<<<<<<<7e<5we994<9w9900003<<0<<<<<<<=<<<,<<<<<<<<6t1<<-%%@o$%%%%%$%%%%%%=%+OOOOOoOOOOOOOOOOOO$***$OOO",
"oooo%%%%%*,,,7<<<:%%%*,<<<<<<<,<<<7e<199e97:999w999w3<<9<<<<<<<&<<<<<<<<<<<<3t<<<=$%$o$$%%%%%%%%$%%=%OOOOOOOOOOOOOOOOOOO$***%OOO",
"oooo%%%%%=,,<7<<<;%%%*<<<<<<<,<<<<6e<<9w995:99w99w99<<<w<<<<<<<&<<<,<,<<<<<<3t1<<*%%@o$$%%%%%%%%%%%=$OOOOOOXOOOOOOOOOOOO#****OOO",
"oooo@%%%%;,,,7<<<=%%%*<<<<<<<<<<<<6e1<7w9w5:99w9ww98<<<q<<<<<<,%<<<<<<<<,<<<1e1<<*%%$o$$%%%$%$%%%%%=@OOOOOOXOOOOOOOOOOOO@****OOO",
".ooo+%%%%>,,,7<<<%%%%=<<<<,<<<<<<<4e4<79995:999w99w7<<3q<<<<<,>&<<<<<<<<<<<<1e1<<%$%@o$$%%%%%%%%%%%*OOOOOO+XOOOOOOOOOOOO@****@OO",
"ooooO%%%%,,,<7<<>%%%%*<<<<<<<<<<<<4e6<199w8:7w99q993<<39<<<<<<:*<<<,<<<<<<<<1e3<>$%%$o+*%%%%$%%%%%$*OOOOOOOXOOOOOOOOOOOO@****$OO",
"ooooo%%%=,,,,7<<;%%%%=<<<<<<<<<<<<4e7<<w9w8:49wwqw9<<<59<<<<<<;*,<<<<<<<<<<<1t1<;%%%$.$$%%%%%%%$%%%%OOOOOO+XOOOOOOOOOOOO@****%OO",
"ooooo@%%;,,,,7,<=%%%%=<<<<<,<<<<<<4e7<<7998:39w99w8<<<79<<<<<<;=<<<<<<<,<<<<1w3<-$%$$.#$%%%%%%%%%%%@+OOOOOOXOOOOOOOOOOOO@*****OO",
"ooooo@%%>,,,<7<<%%%%%=<<<<<<<<<<<<1t9<<6998:3999q95<<<89<<<<<<=*<<<<<<<<<<<<<t6<*%%$$.+*$%%%%%%%%%$@OOOOOO+XOOOOOOOOOOOO+*****@O",
"oooooo%&,,,,,7<:%%%%%-<<<<<<<<<,<<1ew<<1997,299e9q1<<<99<<<<<<=*<<<<<<<<<<<<<w6<$$*$$X#$%%%%%$%%%%@@OOOOOOOX+OOOOOOOOOOO+*****$O",
"oooooo$-,,,,,7<-%%%%%-<<<<<<<<<<<<1ew<<<7w7:<999w7<<<<99<<<<<<*=,<<<<,<<<<<<<t6;$*$$*X+$%%%$%%%%%$O@OOOOOOOXOOOOOOOOOOOO+******O",
"oooooo@:,,,,,7<%%%%%%-<<<<<,<<<<<<1ee<<<799::99w96<<<<w9<<<<<<%=<<<<<<<<<<<<1w7=$$$$$X+$%$%%%%%%%@O#OOOOOOOXOOOOOOOOOOOO+******+",
"ooooooO<,,,,,7,%%%%%%=<<<<<<<<<<<<1ee1<<198:<999q<<<<<e9<<<<<<%=<<<<<<<<<<<<<w7&$*$$$X+*%%%%%%%%$OO#OOOOOOOXOOOOOOOOOOOO+******%",
"oo.oooo;,,,,,7<=%%%%%-<<<<<<<<<<<<1ee3<<<68::79w7<<<<1e9<<<<<:%=<<<<<<<<<<<<<w6%$*$*$oO#%%%%%%%%+OO#OOOOOOOXOOOOOOOOOOOO+*******",
"ooooooo@<,,,,5<,%%%%%;<<<<<<<<,<<<1ee6<<<17::599<<<<<3t9<<<<<;%=<<<<<<<<<<<<<t1%$$$$*X+*%%%$%%%@OOO$OOOOOOOXOOOOOOOOOOOOO*******",
"ooooooo+-,,,:<<<=%%%%<<<<<<,<<<<<<1ee71<<<1::393<<<<<7t7<<<<<;%=<<<<<<<<<<<<<t:%$*$$$XO$%%%%%%#OOOO$OOOOOOOXOOOOOOOOOOOO+*******",
"o.ooo.o+=,,,,<<<-%%%%<<<<<<<<<<<<<<ee9<<<<:&;<3<<<<<<7e7<<<<<=%=,<<<,<<<<<<<<9;%$$*#*XO%%%#%#@OOOO+$OOOOOOOXOOOOOOOOOOOO+*******",
"o.ooo..%>,,,<3<>%%%%%;<<<<<<<<<<<<89u9<<<<:%::5:<<<<19t9<<<,<*%=<<<<<<<<<<<<<9>%%%%#%oO%%%#%#@OOOO@@OOOOOOO.OOOOOOOOOOOO+*******",
"ooooooo-,,,,,7,=%%%%%-<<<<<<<<<<<<2y992<<<2:::98<<<<<t97<<<<<%%=<<<<<><<<<<<,w<%%%%%%oo%%%%%%%@OOO@#OOOOOOO.OOOOOOOOOOOOO*******",
"ooooooO,,,,,,7<%%%%%%-<<<<<<<<<<<<29u92<<<8:::891<<<19e9<<<<,%%=<<<<<<<<<<<<<e6%%%%%%oo%%%%%%#%@OO@#OOOOOOooOOOOOOOOOOOO+******%",
"oo.ooo+>,,,,<7<%%%%%%-,<<<<<<,<<<<3u9u8<:88:::895<<<4te9<<<<:%%=<<<<<<<<<<<<<e9%%%%%%oo%%%%%%%%%@O@%OOOOOOo.OOOOOOOOOOOO+******+",
".ooooo#-,<,,,7<=%#%%%-<<<<<<<,<<<<29yr92299::::991<<7ee9<,<<-%%=<<<<<<<<<<<<<ee&%%%%%oo%%%%%%%%%#+@%OOOOOO..OOOOOOOOOOOO+*****%+",
"oooooO%&,,,,,7<>%%%%%-<<,<<<<<<<<<3y9r92599::::997<<9ee9<<<<=%%=<,<<<<<<<<<<<te-#%%%#oo%%%#%%%%%%@%@+OOOOO..OOOOOOOOOOOO+*****%O",
"oo.oo+%%>,,,,7<<%%%%%-<,<<<<<<<<<<39yr9<998::::998<<9tt9<<<<%%%=<<<<<<<<<<<<<ee<%%%%%oo@%%%%%%%%%%%%OOOOOO..OOOOOOOOOOOO+*****+O",
"ooooo#%%-,,,<7<<=%%%$-<<<<<<<<<<<<3y9rt8998::::8991<etw7<<<,%%%=<<<<,<<<<<<<<ee1%%%%%oo@%%%%%%%%%%&%OOOOO+ .OOOOOOOOOOOO+*****OO",
".oo.o%%%=,,,,7<<;%%%%=<<<<<<<<<<<<59y9p99y9::::59974eee9<<<;%%%*<<<<<<<<<<<<1ee6&%%%@oo@%%%%%%%%%%-%OOOOOO..OOOOOOOOOOOO@****%OO",
"oooo+%%%%,,,<7<<,%%%%=<<<<<<<<<<<<899y9g999::::29w99eet9<<<=%%%*<<<<<<<<<<<<<ee7-%%%%oo@%%%%%%%%%%:%OOOOOO .OOOOOOOOOOOO@****#OO",
"oo.o+%%%%>,,,7<<<%%%%=<<<<<<<,<<<<5y9yyk998:::::9w99y9e9<<<%%%%*,<<<<<<<<<<<1ee7;%%%@.o+%%%%%%%%%%,*OOOOO+ .OOOOOOOOOOOO@****@OO",
"oooo$%%%%;,,,7<<<=%%%=<<<,<<<<<<<<39u9pk995:::::99tpttt9<<>%%%%*<<<<,<<<<<<<1ee9:%%%%ooO%%%%#%%%%%,-OOOOOo  OOOOOOOOOOOO@****OOO",
"oooo%%%$%=,,,7<<<-%%%*<<<<<<<<<<<<999ugkf98:::::59yg9yy9<<;%%%%&<<<<<<<<<<<<3ee9<%%%#ooO%%%#%%%%%*,;OOOOOo  +OOOOOOOOOOO@****OOO",
"oooo%%%%%*,,,7<<<,%%%*<<<<<<<<<<<<8yu9gkk98::::::9gjy9y9<<&%%%%&<<<<<<<<<<<<3eee<%%%#ooo%%%%#%%%%=<;@OOO+o .OOOOOOOOOOOO@***%OOO",
"ooo+%%%%%%,<,7<<<,%%%*<<<<<,<<<<<<99t9kkk95::::::9kk9y99<<%%%%%%<<,<<<<<<<<<3eee<=%%@ooo%%%%%%%%%=<;$OOOOo  OOOOOOOOOOOO$***$OOO",
"oo.+%%%%%%><<7<<<<%%%%<<<<<<<<<<<<99tykkjs5::::::5kks9yy<;%%%%%%<<<<<<<<<<<<6eee<-%%#ooo#%%%%%%%%-,:$OOOO.  OOOOOOOOOOOO$***@OOO",
"oo.@%%%%%%;<,7<<<<*%%%<<<<<<<<<,<<89tskkkk8:::::::gks9u95<&%%%%%<<<<<<<<<<<<6eee1;%%@ooo@%%%%%%%*;,;$+OOO   OOOOOOOOOOOO$***OOOO",
"ooo%$%%%$%-,,7<<<<-%%&<<<<<<<<<<<<9t9gkkkk9:::::::9kgy9u2<:@%%%%<<<<<<<<<<<<6eee6;%%@ooo@%%%%%%%$;,,*@OOO   OOOOOOOOOOOO$***OOOO",
"ooo%%%%%%%=,<7<<<<;%%%<<<<<<<<<<<<99ugkkkk9:::::::5fgy99<<<*%%%&<<<<<<,<<<<<7eee7;%%+ooo@%%%%%%%$,,,$#OOO   OOOOOOOOOOOO$**%OOOO",
"ooO%%%%%%%&,<7<<<<;%%%<<<<<<<<,<<29t9kkkkk9:::::::5gk9y9<<<=%%%&,<<<<<<<<<<<7eee7,%%+oooO#%%%%%%*,,,$$OOO   OOOOOOOOOOOO%**$OOOO",
"ooO%%%$%%%%<<7<<<<>%%%,<<<<<<<<<<<9uykkkkk8:::::::9kkyy91<;$%%%%,<<<<<<<<<<<7eee9>%%+oooO%%%#%%%*,,,$$OOo   OOOOOOOOOOOO%**$OOOO",
"oo@%%%%%%%%:<71<<<<%%%><<<<<<<<<<<99ukkkkg::::::::kkks9y2<&%%%%%;<<<<<<<<<<<7eeee<%$Ooooo%%%%%%%=,,,*$@OX   OOOOOOOOOOOO%**@OOOO",
"oo@%%%%%%%%:,71<<<<&%%><<<<<<<<<<<9tukkkks:::::::5kkkpy94:$%%%%%;<<<<<<<<<<<0teee<%%Ooo.o%%%%%%%=,,,*$#O    OOOOOOOOOOOO***+OOOO",
".o@%%%%%%%%;,41<<<<*%%><<<<,<,<<<<9tskkkgy:::::::9kkksy94,%$%%$%;<<<<<,<<<<<9teee1%$Ooooo@%%%%%%;,,,*$$+    OOOOOOOOOOOO***OOOOO",
"oo$%%%%$%%%-:44<<<<=%%:<<<<<<<<<22eegkkkg9::::::,9gkkf9y5<*%%%%%;<<<<<<<<<<<0eeee7%%ooooo@%%%%%%>,,,*$$O     XOOOOOOOOOO***OOOOO",
"oo%%%%%%%%%=<44<<<<;%%;<<<<<<<<<::eegkkks9::::::4tikkgty7<;$%%$%-<<<<<<<<,<<weeee7%%oooooO%%%%%%,,,,=$*O    XOOOOOOOOOOO**%OOOOO",
"oo%%%%%%%%%=<36<<<<;$%;<<<<<<<<:22eekkkkt9::::::999kkk998<,$%%%%=<<<<<<<<<<<weeee9%%oooooo%%%%#&,,,,=$$O    XOOOOOOOOOOO**$OOOOO",
"oO%$%%%%%%%&>37<<<<:%%=<<<<<<<<<:2eykkkj99::::::999jkkyt8<<&%%%%=<<<,<<<<<<<eeeeew%%oooooo%%%%%-,,,,-$$O    XOOOOOOOOOO+**$OOOOO",
"oO$%$%%%%%%%<17<<<<:%%=<<<<<<<<<<29ukkkg88:::::899edkkp99<<-%%$%*<<<<<<<<<<1wteetw&$.ooooo#%%%%;,,,,-$$O    XOOOOOOOOOO+**$OOOOo",
"o+%%%%%%%%%%><9<<<<<%%*<<<<<<<<<<59pkkku88::::=89t9pkkpy91<;%%%%*<<<<<<<<<<1tweet9=$.o.ooo@%%%%:,,,,;*$.    XOOOOOOOOOO#**#OOOOo",
"o+%%%%%%%%%%><91<<<<%%&<<<<:<<<<28ypkkge88:::::89999kkp99<<<$%%%*<<<<<<<<<<3eeeet9;$ooooooO%%%%,,,,,;%$o     OOOOOOOOOO#**+OOOOX",
"o@%%%%%%%%%%><9<<<<<&%&<<<<<<<<<<99skkg888:::::89e99kkptt<<<&%%$$<<<<<<<<<<6eeeee9,@ooooooo%%%-,,,,<>%+o     OOOOOOOOOO$**+OOOOo",
"o@%%%%$%%%%%;,91<<<<&%%<<<<<<<<<289fkkk993:::::9999rgks9y2<<=%%%@,<<<<<<<<<8yu9u98,@ooooooO%%%-,,,,,,$+o     OOOOOOOOOO%=*OOOOO.",
"o$%%%%%%%$%%;,91<<<<=%%<<<<<<<<<29ygkkk995::::29e999pkgy92<<;$%%&:<<<<<<<<<999u998,@oo.oooo@%@,,,,,,,%oo     oOOOOOOOOO%**OOOOO ",
"o$%%%%%%%%%%-,93<<<<=%%><<<<<<<<299gkkp992::::999e9rukg9y5<<:%%%@:<<<<<<<<29y99pp8,@o.ooooo@%*,,,,,,<$oo     OOOOOOOOOO%*&OOOOO ",
"o$%%%%%%%%%%=<74<<<<-%%:<<<<<<<<39ukkk999:::::9999999kjt95<<,$%%@:<<<<<<<<599uu993,@oo.oooO@@;,,,,,,<@oo     oOOOOOOOOO&*&OOOOO ",
"o%%%$%%%%%$%=<76<<<<-%%;<<<<<<><299kkkt99:::::9t99999kk9y8<<1%%%&-<<<<<<<<<99u9u92,Oooooooo@%,,,><><<ooo     OOOOOOOOOO**$OOOOO ",
"o%$%%%%%%%%%=<77<<<<;%%=<<<<<<<<3ypkkk999:::::9999y99jkuy9<<,*%%%=<<<<<<<<59p9u9p2,oo.ooooo%%<,,<><>-ooo.   .OOOOOOOOO+&**OOOOO ",
"O%%%%%%%%%%%*,69<<<<;%%=<<<<<<<<899kkg9t8:::::99y9999skt99<<,=%$%*<<<<<<<<599p9u9,:.ooooooO@%;,,><<<*Ooo.   oOOOOOOOOO$&*$OOOOo ",
"o%%%%%$%%%%%&,19<<<<:%%*<<<<<<<<99skks998::::29999999ukyt9<<,;%%%%<<<<<<<<5yy9p99,-ooooooOO%%%,,<><;$$oo.  .OOOOOOOOOO$&*$OOOOo ",
"O%%%%%%%%%%%&<<w<<<<>%$*<<<<<<<<8eukkur98::::89e99999pky9931<:%%%%,<<<<<<<79p99u5,*oooooooO%%%-,><;%%%+oo  oOOOOOOOOOO+**$OOOOX ",
"O%%%%%%%%%%#%<<e<<<<,%%%><<<<<<<9eugkr99:::::9999y999tkpyt1<<:%%%%,<<<<<<<899pyp2,%ooooooo@%%%-,<>>*%%+oo  OOOOOOOOOOO***$OOOO  ",
"O%%%%%%%%%%%%<,w1<<<<$%$;<<<<<<<9yukk999:::::9999ty999kptt4<<<%%%%:<<<<<<<9pp9p9,,@ooooooo@%@*,,><<;$$ooo  .+OOOOOOOOO***$OOOO  ",
"O%%%%%%#%%%%%:<w6<<<<$%%;<<<<<<<y9skk99r:::::9e9999999jp997<<<%%%%-<<,<<23999p99,,Oooooooo%%%:,,<><<&Oooo   oOOOOOOOOO***+OOOO  ",
"@%%%%%%%%%%%%,<97<<<<%$%-<<<<<<1eeskg988:::::99999999tfsy99<<<&%%%=<<<<<<<9y9y95,:oo.ooooo@%@,,,><<>;oooo    OOOOOOOO+=*=+OOOO  ",
"@%%%%%%%%%%%%:<77<<<<*%%=<<<<<<3eesgg988::::29999t9t99ssyy9<<<=%%%=<<<<<<2y9p9y1,;oooooooO%%%:,,<>><,Oooo.   oOOOOOO++***+OOOo  ",
"@%%%%%%%%%%#%:,7w<<<<%%%%<<<<<<7eegks998::::299e9y9999ff9y92<<-%%@%<<<<<<79u9u9<,=oooo.ooO%%%;,,><>>,%ooo    oOOOOOOO+***+OOOX  ",
"@%%%%%%%%%%%%:<3t<<<<*%%%<<<<<17eesks988::::8e999999t9pgy9p3<<-%%%%:,<<<<9u9u97,,%o.ooooo@%%%*,,<>><,-ooo.    OOOOOOo***=+OOO   ",
"@%%%%%%%%%%%%;,1w1<<<&%%%><<<<<weegku992::::8999999999ygi9t6<<:%%%%;<<<<<99i997<,@ooo.ooo@%@%%,,><><<<OoX     OOOOOOO****OOOO   ",
"@%%#%%%%%%%%%;,<t6<<<*%%%;<<<<<weegku99:::::99999y99999j9i99<<:&%%%-<<<<19i9p9<<,Oooooooo@%&%%;,<><>,<@oX     XOOOOOO****OOOO   ",
"#%%%%%%%%%%%%;,,w7<<<*%%%-<<<<3teejky99:::::99e999y9y99kyt99<<,@%%%=<<<<1i9i95<,:.ooooo.O%%%%%*,><><,,=oXX     OOOOO+=***OOOX   ",
"#%%%%%%%%%%%%;,,70<<<*%$%%<<<<7weejk998:::::9999p999999ju9i9<<<%%%%%<<<<69i99,,,*oooooooO%%%%%%,<><,,,;oXX     OOOOO+****OOOX   ",
"#%%%%%%%%%%%%;<,7t<<<=%%%%<<<<9teejk99<:::::99e99999y99k9u9u2<<%%%%%;<<<9y9t9<<<@Ooooooo@@%%%%&,><><,,,OX.     OOOOO*****OOO    ",
"%%%%%%%#%%%%%;,,6t6<<=%%%%;<<<weryjk99::::::9999999p999ku9p972<%%%%%;<<<99p93<<:Oooooooo@&%%&@@;<><>,,,@o.      OOOO*****OOO    ",
"@%%%%%%%%%%%%-,,1e7<<=%%%%=<11eer9kj99::::::99999i99999f9u9u93<*%%%%=<<<y9r6,,,:oooooooo%%%%%%%-><><,,,*X.      OOO+*****OOo    ",
"%%%%%%%%%%%%%-,,<wq<<=%%%%&<<7eey9kg98::::::9e9e9999999fu9u99<<*%%%%%<<69u9,,,,=oo.oooo+%%%%%%%*<><>,,,-o.      OOO$*****OO     ",
"#%%%%%#%%%$%%-,,<9e3<=%%%$%<<wwe9ukg9<:::::<9t999999i99j9u9u98<=@%%%@;29u92,,,,@o.ooooo@%%%%%%%%><,,,>,>XX      OOO******OO     ",
"#%%%%%%%%%%%%-,,<7e7<=$%%%%-1weeu9kf9::::::299999999999su9p999,=%%%%%=2tt9,,,,:Ooooo.oO@@%%%%%%%>>><,<,>OX      OOO******Oo     ",
"%%%%%%%%%%%%%-,,<1e9<-%%%%%%7eee9uks5::::::2999ii999999a9u9uu95;%%%%%&699,,,,<*oooooooO%&%%%%%%%;>,,,,,,+X      XO$******OX     ",
"%%%%%%%%%%%$%-,,,,ee1-%%%%%%7eeey9ks2:::::,79t99999y999iu9p99u8;%%%%%%692<,,,<@o.ooooo@%%%&@%%*@-<,,,,><*X      XO$******o.     ",
"%%%%%%%%%%%%%-,,,,7e9-%%%$%%>eeeu9ks8::::::5999999999i9i9u9u9i9:%%%%%%=<,,,,,:@oooooo+%%%%%%@*%%=>,,<,,,*X      XO#******Oo     ",
"%%%%%%%%%%%%%=,,,,1ee;%%%%%%%9ee9uk99<:::::9t99t9i99999ip9u9i9t<%%%%@+o=,,,,,*@+ooooo@%%%%&@%*%%*<,,>,><;X       OO******O+     ",
"%%%%%%%%%%%%%=,,,,<7e<%%%%%%$<eey9s999::::599999999999999u9u9ii8%%%@Ooo+>,<,:@&@Oooo+%%%%%%%*@*@@1<>,>,,;X       OOO****@OOo    ",
"%%%%%%%#%%%%%-,,,<<1e<%%%%%%%;199899999<:89999i99ti9999iu9u9p999%@OOoooO%;>;%&@&@Oo+%%@%%%%%@*@*@>,,,<,,>        OOOO**@OOOOX   "
};
